<svg width="21" height="22" viewBox="0 0 21 22" fill="none" xmlns="http://www.w3.org/2000/svg">
<path d="M19.1004 0H1.89962C0.8505 0 0 0.891 0 1.99008V20.0099C0 21.109 0.8505 22 1.89962 22H19.1003C20.1495 22 21 21.109 21 20.0099V1.99008C21 0.891 20.1495 0 19.1004 0ZM6.49829 18.9963C6.49829 19.3161 6.2508 19.5754 5.94547 19.5754H3.59226C3.28694 19.5754 3.03945 19.3161 3.03945 18.9963V8.66195C3.03945 8.34209 3.28694 8.08281 3.59226 8.08281H5.94547C6.2508 8.08281 6.49829 8.34209 6.49829 8.66195V18.9963ZM4.76887 7.10865C3.53421 7.10865 2.5333 6.06008 2.5333 4.76663C2.5333 3.47318 3.53421 2.42461 4.76887 2.42461C6.00353 2.42461 7.00443 3.47318 7.00443 4.76663C7.00443 6.06008 6.00358 7.10865 4.76887 7.10865ZM18.7961 19.0429C18.7961 19.337 18.5685 19.5754 18.2878 19.5754H15.7626C15.4819 19.5754 15.2544 19.337 15.2544 19.0429V14.1955C15.2544 13.4724 15.4568 11.0268 13.4505 11.0268C11.8942 11.0268 11.5786 12.7007 11.5152 13.452V19.0429C11.5152 19.337 11.2877 19.5754 11.0069 19.5754H8.56465C8.28395 19.5754 8.05636 19.337 8.05636 19.0429V8.6153C8.05636 8.32124 8.28395 8.08281 8.56465 8.08281H11.0069C11.2876 8.08281 11.5152 8.32124 11.5152 8.6153V9.5169C12.0923 8.60966 12.9499 7.9094 14.7758 7.9094C18.8192 7.9094 18.7961 11.8669 18.7961 14.0413V19.0429Z" fill="#0077B7"/>
</svg>
