<svg width="24" height="24" viewBox="0 0 24 24" fill="none" xmlns="http://www.w3.org/2000/svg">
<path d="M22.5 20.25H1.5C0.672 20.25 0 19.578 0 18.75V5.25C0 4.422 0.672 3.75 1.5 3.75H22.5C23.328 3.75 24 4.422 24 5.25V18.75C24 19.578 23.328 20.25 22.5 20.25Z" fill="#1E88E5"/>
<path d="M22.5 20.25H1.5C0.6585 20.25 0 19.5915 0 18.75C0 18.5115 0.114 18.2865 0.306 18.1455L11.556 10.6455C11.688 10.548 11.844 10.5 12 10.5C12.156 10.5 12.312 10.548 12.444 10.6455L23.694 18.1455C23.886 18.2865 24 18.5115 24 18.75C24 19.5915 23.3415 20.25 22.5 20.25Z" fill="#2196F3"/>
<path d="M22.5 3.75H1.5C0.6585 3.75 0 4.4085 0 5.25C0 5.4885 0.114 5.7135 0.306 5.8545L11.562 13.935C11.823 14.1225 12.1755 14.1225 12.4365 13.935L23.6925 5.8545C23.886 5.7135 24 5.4885 24 5.25C24 4.4085 23.3415 3.75 22.5 3.75Z" fill="#64B5F6"/>
</svg>
