<svg id="Слой_1" data-name="Слой 1" xmlns="http://www.w3.org/2000/svg" viewBox="0 0 24 18">
  <defs>
    <style>
      .cls-1 {
        fill: #bd3d44;
      }

      .cls-1, .cls-2, .cls-3 {
        fill-rule: evenodd;
      }

      .cls-2 {
        fill: #fff;
      }

      .cls-3 {
        fill: #192f5d;
      }
    </style>
  </defs>
  <path class="cls-1" d="M0,3H24V4.39H0ZM0,5.77H24V7.16H0ZM0,8.54H24V9.93H0Zm0,2.77H24v1.38H0Zm0,2.77H24v1.38H0Zm0,2.76H24v1.39H0Zm0,2.77H24V21H0Z" transform="translate(0 -3)"/>
  <path class="cls-2" d="M0,4H24V5.46H0ZM0,6.91H24V8.36H0ZM0,9.82H24v1.45H0Zm0,2.91H24v1.45H0Zm0,2.91H24v1.45H0Zm0,2.9H24V20H0Z" transform="translate(0 -3)"/>
  <path class="cls-3" d="M0,3H13.68v9.69H0Z" transform="translate(0 -3)"/>
  <path class="cls-2" d="M1.14,3.42l.13.38h.4L1.34,4l.13.39-.33-.24-.32.24L.94,4,.61,3.8H1Zm2.28,0,.12.38H4L3.62,4l.12.39-.32-.24-.33.24L3.22,4,2.89,3.8h.4Zm2.28,0,.13.38h.39L5.9,4,6,4.42,5.7,4.18l-.33.24L5.49,4,5.17,3.8h.4ZM8,3.42l.12.38h.41L8.18,4l.13.39L8,4.18l-.33.24L7.78,4,7.45,3.8h.4Zm2.28,0,.13.38h.4L10.46,4l.13.39-.33-.24-.32.24L10.06,4,9.73,3.8h.41Zm2.28,0,.12.38h.41L12.74,4l.13.39-.33-.24-.33.24L12.34,4,12,3.8h.41Zm-10.26,1,.12.38h.41L2.48,5l.12.39-.31-.24L2,5.39,2.07,5l-.31-.23h.4Zm2.28,0,.13.38h.4L4.76,5l.13.39-.33-.24-.33.24L4.36,5,4,4.77h.41Zm2.28,0L7,4.77h.41L7,5l.12.39-.32-.24-.33.24L6.64,5l-.33-.23h.4Zm2.28,0,.13.38h.4L9.32,5l.13.39-.33-.24-.32.24L8.92,5l-.33-.23H9Zm2.28,0,.12.38h.41L11.6,5l.12.39-.32-.24-.33.24L11.2,5l-.33-.23h.4Zm-10.26,1,.13.39h.4L1.34,6l.13.38-.33-.24-.32.24L.94,6,.61,5.74H1Zm2.28,0,.12.39H4L3.62,6l.12.39-.32-.24-.33.24L3.22,6l-.33-.23h.4Zm2.28,0,.13.39h.39L5.9,6,6,6.36,5.7,6.12l-.33.24L5.49,6l-.32-.23h.4ZM8,5.35l.12.39h.41L8.18,6l.13.39L8,6.12l-.33.24L7.78,6l-.33-.23h.4Zm2.28,0,.13.39h.4L10.46,6l.13.39-.33-.24-.32.24L10.06,6l-.33-.23h.41Zm2.28,0,.12.39h.41L12.74,6l.13.39-.33-.24-.33.24L12.34,6,12,5.74h.41Zm-10.26,1,.12.39h.41l-.33.23.13.39-.33-.24L2,7.32l.13-.38-.33-.23h.41Zm2.28,0,.13.39h.4l-.33.23.13.39-.33-.24-.33.23.13-.38L4,6.71h.41Zm2.28,0L7,6.71h.41L7,6.94l.12.39-.32-.24-.33.23.13-.38-.33-.23h.4Zm2.28,0,.13.39h.4l-.33.23.13.39-.33-.24-.32.23.12-.38-.33-.23H9Zm2.28,0,.12.39h.41l-.33.23.12.39-.32-.24-.33.23.13-.38-.33-.23h.4Zm-10.26,1,.13.39h.4l-.33.23.13.39-.33-.24-.32.23.12-.38L.61,7.68H1Zm2.28,0,.12.39H4l-.33.23.12.38-.32-.23-.33.23.13-.38-.33-.23h.4Zm2.28,0,.13.39h.39l-.32.23L6,8.3,5.7,8.06l-.33.23.12-.38-.32-.23h.4ZM8,7.29l.12.39h.41l-.33.23.13.39L8,8.06l-.33.23.13-.38-.33-.23h.4Zm2.28,0,.13.39h.4l-.33.23.13.39-.33-.24-.32.23.12-.38-.33-.23h.41Zm2.28,0,.12.39h.41l-.33.23.13.39-.33-.24-.33.23.13-.38L12,7.68h.41Zm-10.26,1,.12.39h.41l-.33.23.13.39L2.28,9,2,9.27l.13-.39-.33-.24h.41Zm2.28,0,.13.39h.4l-.33.23.13.39L4.56,9l-.33.24.13-.39L4,8.64h.41Zm2.28,0L7,8.65h.41L7,8.88l.12.39L6.84,9l-.33.24.13-.39-.33-.24h.4Zm2.28,0,.13.39h.4l-.33.23.13.39L9.12,9l-.32.24.12-.39-.33-.24H9Zm2.28,0,.12.39h.41l-.33.23.12.39L11.4,9l-.33.24.13-.39-.33-.24h.4Zm-10.26,1,.13.39h.4l-.33.23.13.38L1.14,10l-.32.23.12-.38L.61,9.61H1Zm2.28,0,.12.39H4l-.33.23.13.38L3.42,10l-.33.23.13-.38-.33-.24h.4Zm2.28,0,.13.39h.39l-.32.23.12.38L5.7,10l-.33.23.12-.38-.32-.24h.4ZM8,9.23l.12.39h.41l-.33.23.13.38L8,10l-.33.23.13-.38-.33-.24h.4Zm2.28,0,.13.39h.4l-.33.23.13.38L10.26,10l-.32.23.12-.38-.33-.24h.41Zm2.28,0,.12.39h.41l-.33.23.13.38L12.54,10l-.33.23.13-.38L12,9.61h.41Zm-10.26,1,.12.38h.41l-.33.24.13.39L2.28,11,2,11.2l.13-.38-.33-.24h.41Zm2.28,0,.13.38h.4l-.33.24.13.39L4.56,11l-.33.23.13-.38L4,10.58h.41Zm2.28,0,.12.38h.41L7,10.82l.12.39L6.84,11l-.33.23.13-.38-.33-.24h.4Zm2.28,0,.13.38h.4l-.33.24.13.39L9.12,11l-.32.23.12-.38-.33-.24H9Zm2.28,0,.12.38h.41l-.33.24.12.39L11.4,11l-.33.23.13-.38-.33-.24h.4Zm-10.26,1,.13.38h.4l-.33.24.13.38-.33-.23-.32.23.12-.38-.33-.24H1Zm2.28,0,.12.38H4l-.33.24.13.38-.33-.23-.33.23.13-.38-.33-.24h.4Zm2.28,0,.13.38h.39l-.31.24.12.38-.33-.23-.32.23.12-.38-.32-.24h.4Zm2.28,0,.12.38h.41l-.33.24.13.38L8,11.94l-.33.23.13-.38-.33-.24h.4Zm2.28,0,.13.38h.4l-.33.24.13.38-.33-.23-.32.23.12-.38-.33-.24h.41Zm2.28,0,.12.38h.41l-.33.24.13.38-.33-.23-.33.23.13-.38L12,11.55h.41Z" transform="translate(0 -3)"/>
</svg>
