<?xml version="1.0" encoding="utf-8"?>
<!-- Generator: Adobe Illustrator 25.2.1, SVG Export Plug-In . SVG Version: 6.00 Build 0)  -->
<svg version="1.1" id="Слой_1" xmlns="http://www.w3.org/2000/svg" xmlns:xlink="http://www.w3.org/1999/xlink" x="0px" y="0px"
	 viewBox="0 0 24 18" style="enable-background:new 0 0 24 18;" xml:space="preserve">
<style type="text/css">
	.st0{fill:#FFFFFF;}
	.st1{fill:#D52B1E;}
</style>
<path class="st0" d="M5.6,0h12.7v18H5.6V0z"/>
<rect class="st1" width="5.6" height="18"/>
<rect x="18.4" class="st1" width="5.6" height="18"/>
<path class="st1" d="M7.5,8.7L7,8.9l2.3,2c0.2,0.5-0.1,0.7-0.2,0.9l2.5-0.3L11.6,14h0.5L12,11.5l2.5,0.3c-0.2-0.3-0.3-0.7-0.2-1
	l2.3-1.9l-0.4-0.1c-0.3-0.2,0.1-1.2,0.2-1.8c0,0-1.3,0.5-1.4,0.2l-0.4-0.7l-1.2,1.3c-0.1,0-0.2,0-0.2-0.1l0.6-2.8l-0.9,0.5
	c-0.1,0-0.2,0-0.2-0.1c0,0,0,0,0,0l-0.9-1.7L11,5.4c0,0.1-0.1,0.1-0.2,0c0,0,0,0,0,0L9.9,4.9l0.5,2.8c0,0.1-0.1,0.1-0.2,0.1
	c0,0,0,0,0,0L9,6.4C8.9,6.7,8.8,7.1,8.6,7.2c-0.5,0-0.9-0.1-1.4-0.3C7.4,7.5,7.8,8.4,7.5,8.7z"/>
</svg>
