<svg xmlns="http://www.w3.org/2000/svg" viewBox="0 0 18 20">
  <defs>
    <style>
      .cls-1 {
        fill: #0c0c0e;
      }
    </style>
  </defs>
  <g id="Слой_1" data-name="Слой 1">
    <path class="cls-1" d="M20.12,4.88A3,3,0,0,0,18,4H17V3a1,1,0,1,0-2,0V4H9V3A1,1,0,1,0,7,3V4H6A3,3,0,0,0,3,7V19a3,3,0,0,0,3,3H18a3,3,0,0,0,3-3V7A3,3,0,0,0,20.12,4.88ZM19,13v6a1,1,0,0,1-1,1H6a1,1,0,0,1-1-1V7A1,1,0,0,1,6,6H7V7A1,1,0,1,0,9,7V6h6V7a1,1,0,1,0,2,0V6h1a1,1,0,0,1,1,1Z" transform="translate(-3 -2)"/>
  </g>
  <g id="Слой_2" data-name="Слой 2">
    <path class="cls-1" d="M8,15a1,1,0,1,0-1-1A1,1,0,0,0,8,15Z" transform="translate(-3 -2)"/>
    <path class="cls-1" d="M16,13H12a1,1,0,1,0,0,2h4a1,1,0,1,0,0-2Z" transform="translate(-3 -2)"/>
  </g>
</svg>
