<svg width="17" height="16" viewBox="0 0 17 16" fill="none" xmlns="http://www.w3.org/2000/svg">
<path d="M15.4688 7H9.46875V1C9.46875 0.734784 9.36339 0.48043 9.17586 0.292893C8.98832 0.105357 8.73397 0 8.46875 0C8.20353 0 7.94918 0.105357 7.76164 0.292893C7.57411 0.48043 7.46875 0.734784 7.46875 1V7H1.46875C1.20353 7 0.94918 7.10536 0.761643 7.29289C0.574107 7.48043 0.46875 7.73478 0.46875 8C0.46875 8.26522 0.574107 8.51957 0.761643 8.70711C0.94918 8.89464 1.20353 9 1.46875 9H7.46875V15C7.46875 15.2652 7.57411 15.5196 7.76164 15.7071C7.94918 15.8946 8.20353 16 8.46875 16C8.73397 16 8.98832 15.8946 9.17586 15.7071C9.36339 15.5196 9.46875 15.2652 9.46875 15V9H15.4688C15.734 9 15.9883 8.89464 16.1759 8.70711C16.3634 8.51957 16.4688 8.26522 16.4688 8C16.4688 7.73478 16.3634 7.48043 16.1759 7.29289C15.9883 7.10536 15.734 7 15.4688 7Z" fill="black"/>
</svg>
