<svg width="25" height="17" viewBox="0 0 25 17" fill="none" xmlns="http://www.w3.org/2000/svg">
<path d="M22.2443 16.9026H2.69318C1.46565 16.9026 0.46875 15.9058 0.46875 14.6782V2.22442C0.46875 0.996897 1.46565 0 2.69318 0H22.2443C23.4718 0 24.4688 0.996897 24.4688 2.22442V14.6708C24.4688 15.9057 23.4718 16.9026 22.2443 16.9026Z" fill="#006FCF"/>
<mask id="mask0_5532_10462" style="mask-type:alpha" maskUnits="userSpaceOnUse" x="0" y="4" width="25" height="10">
<path d="M0.480469 4.00391V13.8241H24.4581V4.00391H0.480469Z" fill="white"/>
</mask>
<g mask="url(#mask0_5532_10462)">
<path d="M21.516 8.19335H23.3164V4.00488H21.397V4.67444L20.9729 4.00488H19.299V4.85299L18.927 4.00488H16.1595C16.0256 4.00488 15.8991 4.01232 15.7727 4.03464C15.6685 4.04952 15.5643 4.07184 15.4602 4.10904C15.3784 4.13136 15.304 4.16112 15.2296 4.19831C15.1403 4.23551 15.0585 4.28759 14.9841 4.33966V4.19831V4.01233H5.95244L5.70694 4.7414L5.45399 4.01233H3.3486V4.86787L2.96919 4.01233H1.25064L0.484375 5.80526V7.82881V8.20079H1.69702L1.9202 7.59819H2.34426L2.57489 8.20079H11.919V7.59075L12.3877 8.20079H14.9692V8.06688V7.89577C15.0361 7.94041 15.1031 7.97761 15.1775 8.00737C15.2444 8.03712 15.3188 8.06688 15.3932 8.0892C15.4825 8.11896 15.5718 8.14128 15.6685 8.15616C15.8173 8.18591 15.9661 8.19335 16.1074 8.19335H17.6549L17.878 7.59075H18.3021L18.5327 8.19335H21.1217V7.56843L21.516 8.19335ZM24.4546 13.5647V9.63662H24.2463H9.58294L9.20352 10.1723L8.83155 9.63662H4.54637V13.8251H8.80923L9.18121 13.282L9.56806 13.8251H12.2389V12.9249H12.2091C12.5439 12.9249 12.8415 12.8654 13.1093 12.7687V13.8325H14.9692V13.2225L15.4379 13.8325H23.5098C23.7404 13.8325 23.9562 13.7953 24.157 13.7209C24.2537 13.6763 24.3579 13.6242 24.4546 13.5647Z" fill="#F7F7F7"/>
<mask id="mask1_5532_10462" style="mask-type:alpha" maskUnits="userSpaceOnUse" x="5" y="10" width="20" height="4">
<path d="M24.4755 13.1434V10.3164H5.20703V13.1434H24.4755Z" fill="white"/>
</mask>
<g mask="url(#mask1_5532_10462)">
<path d="M23.5193 12.578H22.0686V13.1434H23.497C24.107 13.1434 24.4716 12.7715 24.4716 12.2432C24.4716 11.7374 24.1442 11.4472 23.5937 11.4472H22.939C22.7753 11.4472 22.6637 11.3431 22.6637 11.1794C22.6637 11.0083 22.7753 10.8967 22.939 10.8967H24.1665L24.4195 10.3238H22.9613C22.3513 10.3238 21.9867 10.6958 21.9867 11.2017C21.9867 11.7225 22.329 12.0201 22.8646 12.0201H23.5119C23.6755 12.0201 23.7871 12.1242 23.7871 12.2953C23.7946 12.4664 23.6755 12.578 23.5193 12.578ZM20.8336 12.578H19.3829V13.1434H20.8113C21.4213 13.1434 21.7859 12.7715 21.7859 12.2432C21.7859 11.7374 21.4585 11.4472 20.908 11.4472H20.2533C20.0897 11.4472 19.9781 11.3431 19.9781 11.1794C19.9781 11.0083 20.0897 10.8967 20.2533 10.8967H21.4809L21.7338 10.3238H20.2757C19.6656 10.3238 19.3011 10.6958 19.3011 11.2017C19.3011 11.7225 19.6433 12.0201 20.1789 12.0201H20.8262C20.9899 12.0201 21.1014 12.1242 21.1014 12.2953C21.1089 12.4664 20.9898 12.578 20.8336 12.578ZM18.9663 10.8893V10.3164H16.7047V13.1434H18.9663V12.5706H17.3817V12.0052H18.9291V11.4398H17.3817V10.8893H18.9663V10.8893ZM15.187 10.8967C15.4325 10.8967 15.559 11.0529 15.559 11.2464C15.559 11.4398 15.4325 11.596 15.187 11.596H14.391V10.8967H15.187ZM14.391 12.1242H14.7109L15.5515 13.1434H16.3922L15.4548 12.1019C15.9384 12.0126 16.2211 11.663 16.2211 11.2166C16.2211 10.6884 15.8491 10.3238 15.2465 10.3238H13.714V13.1509H14.391V12.1242ZM12.665 11.2687C12.665 11.4621 12.546 11.6183 12.3079 11.6183H11.4895V10.9265H12.3005C12.5385 10.919 12.665 11.0752 12.665 11.2687ZM10.8125 10.3164V13.1434H11.4895V12.2135H12.3377C12.9551 12.2135 13.342 11.8118 13.342 11.2687C13.342 10.7107 12.97 10.3238 12.3674 10.3238H10.8125V10.3164ZM9.81565 13.1434H10.6638L9.53294 11.7225L10.6563 10.3238H9.83052L9.13865 11.2166L8.44677 10.3238H7.59866L8.72947 11.7374L7.6061 13.1509H8.43189L9.12376 12.2432L9.81565 13.1434ZM7.46475 10.8893V10.3164H5.20312V13.1434H7.46475V12.5706H5.88012V12.0052H7.42755V11.4398H5.88012V10.8893H7.46475V10.8893Z" fill="#006FCF"/>
</g>
<path d="M20.5712 5.82184L20.5637 5.59122L20.7051 5.82184L21.7838 7.51062H22.5724V4.68359H21.9103V6.3203L21.9177 6.5286L21.7913 6.3203L20.7348 4.68359H19.9016V7.51062H20.5637V5.82184H20.5712ZM17.8706 5.74001L18.0789 5.2118L18.2872 5.74001L18.5402 6.36493H17.6325L17.8706 5.74001ZM18.994 7.51062H19.7528L18.5476 4.68359H17.6549L16.4422 7.51062H17.1638L17.4019 6.90802H18.7485L18.994 7.51062ZM16.033 7.51062H16.0702L16.3455 6.90802H16.1372C15.6759 6.90802 15.4007 6.61788 15.4007 6.11943V6.08223C15.4007 5.63586 15.6462 5.30108 16.1297 5.30108H16.8663V4.69103H16.0777C15.2072 4.69103 14.7311 5.27876 14.7311 6.08223V6.13431C14.7311 6.96754 15.2221 7.51062 16.033 7.51062ZM13.6226 7.51062H14.2996V6.26822V4.68359H13.6226V6.2459V7.51062ZM12.2017 5.26388C12.4472 5.26388 12.5736 5.42011 12.5736 5.61354C12.5736 5.80697 12.4472 5.9632 12.2017 5.9632H11.4056V5.26388H12.2017V5.26388ZM11.4056 6.49884H11.7255L12.5662 7.51806H13.4069L12.4695 6.47652C12.9531 6.38725 13.2358 6.03759 13.2358 5.59122C13.2358 5.06301 12.8638 4.69847 12.2612 4.69847H10.7286V7.5255H11.4056V6.49884ZM10.2302 5.26388V4.69103H7.96856V7.51806H10.2302V6.93778H8.64556V6.37981H10.193V5.81441H8.64556V5.26388H10.2302ZM4.61333 5.58378L4.59844 4.8175L5.37959 7.51062H5.98964L6.7708 4.83238L6.75591 5.57634V7.51062H7.4106V4.68359H6.21283L5.67718 6.68483L5.13409 4.68359H3.94377V7.51062H4.59844V5.58378H4.61333ZM1.91277 5.74001L2.12108 5.2118L2.32938 5.74001L2.58232 6.36493H1.6747L1.91277 5.74001ZM3.0287 7.51062H3.79498L2.58976 4.68359H1.69702L0.484375 7.51062H1.20601L1.44408 6.90802H2.79064L3.0287 7.51062Z" fill="#006FCF"/>
</g>
</svg>
