<svg id="Слой_1" data-name="Слой 1" xmlns="http://www.w3.org/2000/svg" width="12.21" height="15" viewBox="0 0 12.21 15">
  <defs>
    <style>
      .cls-1 {
        fill: #fff;
      }
    </style>
  </defs>
  <g>
    <path class="cls-1" d="M16.1,13.5v0a7.28,7.28,0,0,1-.48,1.16,9.6,9.6,0,0,1-1.07,1.66,4.77,4.77,0,0,1-.7.72,2.17,2.17,0,0,1-.73.36,2,2,0,0,1-1-.06c-.21-.07-.41-.16-.62-.25a2.85,2.85,0,0,0-2-.13,5.46,5.46,0,0,0-.67.26,2.85,2.85,0,0,1-.91.24,1.53,1.53,0,0,1-.7-.13A2.16,2.16,0,0,1,6.58,17a5.72,5.72,0,0,1-.72-.83,10.54,10.54,0,0,1-.72-1A9.39,9.39,0,0,1,3.9,10.87,5.71,5.71,0,0,1,4,9.33a4.24,4.24,0,0,1,.72-1.64A3.79,3.79,0,0,1,6.07,6.55a3.61,3.61,0,0,1,1.25-.37,2.6,2.6,0,0,1,.88.05A4.84,4.84,0,0,1,9,6.5a6.39,6.39,0,0,0,.73.27,1.15,1.15,0,0,0,.49,0,2.4,2.4,0,0,0,.52-.16l.93-.34a3.25,3.25,0,0,1,.93-.17,4.06,4.06,0,0,1,1,.09,3.4,3.4,0,0,1,1.94,1.2l.15.19-.08,0a4,4,0,0,0-.88.82A3.27,3.27,0,0,0,14.12,10a3.58,3.58,0,0,0,0,1,3.08,3.08,0,0,0,.47,1.23,3.47,3.47,0,0,0,1.24,1.14Z" transform="translate(-3.9 -2.5)"/>
    <path class="cls-1" d="M13,2.5c0,.13,0,.26,0,.38A3.19,3.19,0,0,1,12.76,4a3.36,3.36,0,0,1-.85,1.22,3,3,0,0,1-1.31.71A1.83,1.83,0,0,1,10,6c-.06,0-.06,0-.07-.06a2.17,2.17,0,0,1,.1-1,3.43,3.43,0,0,1,1.7-2.05,3.21,3.21,0,0,1,.83-.31l.28,0H13Z" transform="translate(-3.9 -2.5)"/>
  </g>
</svg>
