<svg width="20" height="15" viewBox="0 0 20 15" fill="none" xmlns="http://www.w3.org/2000/svg">
<path d="M1.5 8H16.86L13.23 12.36C13.146 12.4611 13.0826 12.5778 13.0437 12.7034C13.0047 12.829 12.9909 12.961 13.003 13.0919C13.0274 13.3564 13.1558 13.6003 13.36 13.77C13.5642 13.9397 13.8275 14.0214 14.0919 13.997C14.3564 13.9726 14.6003 13.8442 14.77 13.64L19.77 7.64C19.8036 7.59228 19.8337 7.54214 19.86 7.49C19.86 7.44 19.91 7.41 19.93 7.36C19.9753 7.24534 19.9991 7.12329 20 7C19.9991 6.87671 19.9753 6.75466 19.93 6.64C19.93 6.59 19.88 6.56 19.86 6.51C19.8337 6.45786 19.8036 6.40773 19.77 6.36L14.77 0.360002C14.676 0.247119 14.5582 0.156339 14.4252 0.0941181C14.2921 0.0318971 14.1469 -0.000236672 14 1.91036e-06C13.7663 -0.000454603 13.5399 0.0809208 13.36 0.230002C13.2587 0.313951 13.175 0.417051 13.1137 0.533399C13.0523 0.649746 13.0145 0.777054 13.0025 0.908031C12.9904 1.03901 13.0043 1.17108 13.0433 1.29668C13.0824 1.42229 13.1458 1.53895 13.23 1.64L16.86 6H1.5C1.23478 6 0.98043 6.10536 0.792893 6.2929C0.605357 6.48043 0.5 6.73479 0.5 7C0.5 7.26522 0.605357 7.51957 0.792893 7.70711C0.98043 7.89464 1.23478 8 1.5 8Z" fill="black"/>
</svg>
