<svg width="19" height="19" viewBox="0 0 19 19" fill="none" xmlns="http://www.w3.org/2000/svg">
<path d="M6.7596 19.0002C5.93342 18.9962 5.11628 18.8279 4.35575 18.5052C3.59521 18.1824 2.90646 17.7116 2.3296 17.1202C1.75707 16.5775 1.29715 15.9273 0.976182 15.2067C0.65521 14.4861 0.479479 13.7093 0.459045 12.9208C0.438611 12.1322 0.573875 11.3474 0.857097 10.6111C1.14032 9.87488 1.56594 9.20172 2.1096 8.63016L9.4696 1.20016C9.86264 0.807833 10.3311 0.499231 10.8467 0.292984C11.3623 0.0867373 11.9144 -0.0128771 12.4696 0.000155444C13.0643 0.00218059 13.6527 0.122594 14.2004 0.354375C14.748 0.586155 15.2441 0.924662 15.6596 1.35016C16.4866 2.14639 16.9662 3.23667 16.9943 4.38433C17.0223 5.53199 16.5967 6.64442 15.8096 7.48015L8.4096 14.9102C8.17258 15.1488 7.89054 15.3379 7.57982 15.4667C7.26911 15.5954 6.93593 15.6612 6.5996 15.6602C6.23628 15.6606 5.87654 15.5883 5.54162 15.4475C5.2067 15.3067 4.90339 15.1001 4.6496 14.8402C4.14233 14.349 3.84937 13.6775 3.83439 12.9716C3.81941 12.2657 4.08362 11.5824 4.5696 11.0702L11.3996 4.21016C11.594 4.08106 11.8274 4.024 12.0594 4.04887C12.2914 4.07374 12.5074 4.17896 12.67 4.34632C12.8327 4.51367 12.9316 4.73263 12.9498 4.96526C12.968 5.1979 12.9042 5.42957 12.7696 5.62016L5.9396 12.4802C5.82571 12.6174 5.77027 12.7938 5.78524 12.9715C5.8002 13.1492 5.88437 13.3139 6.0196 13.4302C6.16031 13.5718 6.35001 13.6542 6.5496 13.6602C6.62354 13.6612 6.69695 13.6476 6.7656 13.6202C6.83426 13.5927 6.89679 13.5519 6.9496 13.5002L14.3396 6.07016C14.7544 5.60934 14.9712 5.00379 14.9431 4.38441C14.9151 3.76502 14.6444 3.18157 14.1896 2.76016C13.7672 2.3216 13.1927 2.06162 12.5845 2.03371C11.9762 2.00581 11.3804 2.21211 10.9196 2.61016L3.5296 10.0002C3.17025 10.3861 2.89076 10.8394 2.70723 11.3337C2.52369 11.8281 2.43974 12.354 2.46018 12.8809C2.48063 13.4079 2.60508 13.9256 2.82637 14.4043C3.04766 14.883 3.36142 15.3132 3.7496 15.6702C4.13888 16.0737 4.60467 16.3956 5.11976 16.6171C5.63486 16.8386 6.18893 16.9552 6.7496 16.9602C7.23302 16.9641 7.71245 16.8725 8.16035 16.6905C8.60826 16.5086 9.01581 16.24 9.3596 15.9002L16.7496 8.47016C16.8422 8.37692 16.9522 8.30283 17.0734 8.25212C17.1947 8.2014 17.3247 8.17506 17.4561 8.1746C17.5875 8.17414 17.7177 8.19956 17.8392 8.24941C17.9608 8.29926 18.0714 8.37257 18.1646 8.46516C18.2578 8.55774 18.3319 8.66778 18.3826 8.78899C18.4334 8.91021 18.4597 9.04023 18.4602 9.17162C18.4606 9.30302 18.4352 9.43322 18.3853 9.55479C18.3355 9.67636 18.2622 9.78692 18.1696 9.88016L10.7796 17.3102C10.2549 17.8441 9.62933 18.2685 8.93922 18.5586C8.2491 18.8487 7.50822 18.9988 6.7596 19.0002Z" fill="#5C6574"/>
</svg>
