<svg width="29" height="24" viewBox="0 0 29 24" fill="none" xmlns="http://www.w3.org/2000/svg">
<path d="M25.1326 4.41657H21.0845V4.00069C21.0845 2.1427 19.5766 0.634766 17.7186 0.634766H11.2807C9.42194 0.634766 7.91476 2.1427 7.91476 4.00069V4.41657H3.86592C2.00719 4.41657 0.5 5.92375 0.5 7.78249V20.0001C0.5 21.858 2.00719 23.366 3.86592 23.366H25.1341C26.9928 23.366 28.5 21.858 28.5 20.0001V7.78249C28.4985 5.92301 26.9913 4.41657 25.1326 4.41657ZM14.4985 19.8744C10.992 19.8744 8.14065 17.0231 8.14065 13.5165C8.14065 10.0107 10.992 7.15867 14.4985 7.15867C18.0051 7.15867 20.8564 10.01 20.8564 13.5165C20.8564 17.0231 18.0043 19.8744 14.4985 19.8744ZM17.8644 13.5165C17.8644 15.3708 16.3535 16.8825 14.4985 16.8825C12.6435 16.8825 11.1326 15.3708 11.1326 13.5165C11.1326 11.6615 12.6435 10.1506 14.4985 10.1506C16.3535 10.1506 17.8644 11.6615 17.8644 13.5165Z" fill="#5C6574" fill-opacity="0.8"/>
</svg>
