<svg width="18" height="18" viewBox="0 0 18 18" fill="none" xmlns="http://www.w3.org/2000/svg">
<path d="M15.3463 11.7923C15.9047 10.405 16.0332 8.86953 15.7138 7.40186C15.3945 5.93419 14.6433 4.60809 13.566 3.61001C12.4886 2.61193 11.1393 1.99206 9.70759 1.83754C8.37844 1.6941 7.04042 1.95844 5.85573 2.59474C5.70573 2.67531 5.51651 2.62429 5.4349 2.47485L4.86912 1.43878C4.79188 1.29735 4.83992 1.11965 4.98097 1.04172C6.22409 0.35488 7.61069 -0.00352345 9.01954 2.6111e-05C10.5236 0.00381567 12.0005 0.420026 13.3027 1.20713C17.1662 3.53959 18.6462 8.53387 16.8453 12.6985L17.5566 13.1275C17.754 13.2466 17.7489 13.5346 17.5474 13.6466L14.8454 15.1487C14.6493 15.2577 14.4073 15.1208 14.3998 14.8965L14.2927 11.6978C14.2847 11.4599 14.5437 11.3079 14.7475 11.4309L15.3463 11.7923ZM2.65452 6.20771C2.09621 7.59503 1.96769 9.13047 2.28704 10.5981C2.60638 12.0658 3.35753 13.3919 4.43488 14.39C5.51223 15.3881 6.8616 16.0079 8.29327 16.1625C9.62242 16.3059 10.9604 16.0416 12.1451 15.4053C12.2951 15.3247 12.4844 15.3757 12.566 15.5252L13.1317 16.5612C13.209 16.7026 13.1609 16.8803 13.0199 16.9583C11.7768 17.6451 10.3902 18.0035 8.98133 18C7.47723 17.9962 6.00038 17.58 4.69812 16.7929C0.834648 14.4604 -0.645346 9.46613 1.1556 5.30154L0.444148 4.87329C0.246519 4.75433 0.251486 4.46613 0.453098 4.35405L3.15465 2.85221C3.35075 2.7432 3.59274 2.88015 3.60025 3.10438L3.70731 6.30308C3.71527 6.54099 3.45627 6.69296 3.25247 6.56997L2.65366 6.2086L2.65452 6.20771Z" fill="white"/>
</svg>
