<svg width="18" height="13" viewBox="0 0 18 13" fill="none" xmlns="http://www.w3.org/2000/svg">
<path d="M6.85911 13.0009C6.72199 13.0004 6.58643 12.9718 6.46085 12.9168C6.33527 12.8617 6.22235 12.7814 6.12911 12.6809L1.26911 7.51089C1.08744 7.31728 0.990114 7.05943 0.998553 6.79407C1.00699 6.5287 1.1205 6.27756 1.31411 6.09589C1.50772 5.91421 1.76557 5.81689 2.03093 5.82533C2.29629 5.83377 2.54744 5.94728 2.72911 6.14089L6.84911 10.5309L15.2591 1.33089C15.3445 1.22461 15.4506 1.1369 15.5711 1.07315C15.6916 1.0094 15.8238 0.970951 15.9597 0.960166C16.0956 0.949382 16.2322 0.966489 16.3612 1.01044C16.4903 1.05439 16.6089 1.12425 16.71 1.21573C16.811 1.30722 16.8923 1.41839 16.9488 1.54243C17.0053 1.66647 17.0359 1.80075 17.0386 1.93703C17.0413 2.0733 17.0162 2.2087 16.9647 2.3349C16.9132 2.4611 16.8364 2.57543 16.7391 2.67089L7.59911 12.6709C7.50675 12.7732 7.39422 12.8554 7.2686 12.9122C7.14297 12.969 7.00696 12.9992 6.86911 13.0009H6.85911Z" fill="black"/>
</svg>
