<svg id="Слой_1" data-name="Слой 1" xmlns="http://www.w3.org/2000/svg" viewBox="0 0 24 24">
  <defs>
    <style>
      .cls-1 {
        fill: #fff;
      }
    </style>
  </defs>
  <rect width="24" height="24" rx="4"/>
  <path class="cls-1" d="M9.86,18.5a1.1,1.1,0,0,1-.4-.08,1.12,1.12,0,0,1-.33-.24L4.27,13a1,1,0,0,1,0-1.41A1,1,0,0,1,5,11.33a1,1,0,0,1,.7.31L9.85,16l8.41-9.2a1,1,0,0,1,.31-.26A1,1,0,0,1,19,6.46a1.07,1.07,0,0,1,.4,0,.84.84,0,0,1,.35.21A1.08,1.08,0,0,1,20,7a.93.93,0,0,1,.09.4.88.88,0,0,1-.08.39.87.87,0,0,1-.22.34l-9.14,10a1,1,0,0,1-.33.24.93.93,0,0,1-.4.09Z"/>
</svg>
