<?xml version="1.0" encoding="utf-8"?>
<!-- Generator: Adobe Illustrator 25.2.1, SVG Export Plug-In . SVG Version: 6.00 Build 0)  -->
<svg version="1.1" id="Слой_1" xmlns="http://www.w3.org/2000/svg" xmlns:xlink="http://www.w3.org/1999/xlink" x="0px" y="0px"
	 viewBox="0 0 14 14" style="enable-background:new 0 0 14 14;" xml:space="preserve">
<style type="text/css">
	.st0{fill:#AFAFAF;}
</style>
<path class="st0" d="M6.7,0C5.3,0,4.1,0.4,3,1.1c-1.1,0.7-2,1.8-2.5,3C0,5.3-0.1,6.7,0.1,8S1,10.4,2,11.4c0.9,0.9,2.1,1.6,3.4,1.8
	c1.3,0.3,2.6,0.1,3.9-0.4c1.2-0.5,2.3-1.4,3-2.5c0.7-1.1,1.1-2.4,1.1-3.7c0-0.9-0.2-1.7-0.5-2.6C12.5,3.3,12,2.6,11.4,2
	C10.8,1.3,10,0.8,9.2,0.5C8.4,0.2,7.5,0,6.7,0z M9.3,7.3H6.7c-0.2,0-0.3-0.1-0.5-0.2C6.1,7,6,6.8,6,6.7V4c0-0.2,0.1-0.3,0.2-0.5
	c0.1-0.1,0.3-0.2,0.5-0.2c0.2,0,0.3,0.1,0.5,0.2C7.3,3.7,7.3,3.8,7.3,4v2h2c0.2,0,0.3,0.1,0.5,0.2C9.9,6.3,10,6.5,10,6.7
	C10,6.8,9.9,7,9.8,7.1C9.7,7.3,9.5,7.3,9.3,7.3z"/>
</svg>
