<svg width="14" height="15" viewBox="0 0 14 15" fill="none" xmlns="http://www.w3.org/2000/svg">
<path d="M5.34726 12.1579C3.91542 12.1579 2.75 10.9534 2.75 9.47363V3H1.68059C0.75352 3 0 3.77864 0 4.73677V13.2631C0 14.2212 0.75352 15 1.68059 15H9.31941C10.2465 15 11 14.2212 11 13.2631V12.1579H5.34726Z" fill="#B9B9BA"/>
<path d="M14 1.68059C14 0.752289 13.2306 0 12.2813 0H5.71879C4.76939 0 4 0.752289 4 1.68059V9.31941C4 10.2477 4.76939 11 5.71879 11H12.2813C13.2306 11 14 10.2477 14 9.31941V1.68059Z" fill="#B9B9BA"/>
</svg>
