<svg id="Слой_1" data-name="Слой 1" xmlns="http://www.w3.org/2000/svg" viewBox="0 0 12.01 12.01">
  <defs>
    <style>
      .cls-1 {
        fill: #fff;
      }
    </style>
  </defs>
  <path class="cls-1" d="M8.41,7l4.3-4.29a1,1,0,0,0,0-1.42,1,1,0,0,0-1.42,0L7,5.59,2.71,1.29a1,1,0,0,0-1.42,0,1,1,0,0,0,0,1.42L5.59,7l-4.3,4.29a1,1,0,0,0-.22.33.94.94,0,0,0,0,.76,1,1,0,0,0,.55.55A1,1,0,0,0,2,13a1,1,0,0,0,.38-.08,1,1,0,0,0,.33-.22L7,8.41l4.29,4.3a1,1,0,0,0,.33.22.94.94,0,0,0,.76,0,1,1,0,0,0,.55-.55.94.94,0,0,0,0-.76,1,1,0,0,0-.22-.33Z" transform="translate(-0.99 -1)"/>
</svg>
