<?xml version="1.0" encoding="utf-8"?>
<!-- Generator: Adobe Illustrator 25.2.1, SVG Export Plug-In . SVG Version: 6.00 Build 0)  -->
<svg version="1.1" id="Слой_1" xmlns="http://www.w3.org/2000/svg" xmlns:xlink="http://www.w3.org/1999/xlink" x="0px" y="0px"
	 viewBox="0 0 343 2" style="enable-background:new 0 0 343 2;" xml:space="preserve">
<style type="text/css">
	.st0{fill:#FFFFFF;}
</style>
<polygon class="st0" points="343,1.5 343,0.5 336.5,0.5 336.5,1.5 341.5,1.5 342,1.5 "/>
<polygon class="st0" points="8.5,0.5 0.5,0.5 0.5,1.5 5.5,1.5 8.5,1.5 "/>
<polygon class="st0" points="328.5,0.5 320.5,0.5 320.5,1.5 325.5,1.5 328.5,1.5 "/>
<polygon class="st0" points="312.5,0.5 304.5,0.5 304.5,1.5 309.5,1.5 312.5,1.5 "/>
<polygon class="st0" points="296.5,0.5 288.5,0.5 288.5,1.5 293.5,1.5 296.5,1.5 "/>
<polygon class="st0" points="280.5,0.5 272.5,0.5 272.5,1.5 277.5,1.5 280.5,1.5 "/>
<polygon class="st0" points="264.5,0.5 256.5,0.5 256.5,1.5 261.5,1.5 264.5,1.5 "/>
<polygon class="st0" points="248.5,0.5 240.5,0.5 240.5,1.5 245.5,1.5 248.5,1.5 "/>
<polygon class="st0" points="232.5,0.5 224.5,0.5 224.5,1.5 229.5,1.5 232.5,1.5 "/>
<polygon class="st0" points="216.5,0.5 208.5,0.5 208.5,1.5 213.5,1.5 216.5,1.5 "/>
<polygon class="st0" points="200.5,0.5 192.5,0.5 192.5,1.5 197.5,1.5 200.5,1.5 "/>
<polygon class="st0" points="184.5,0.5 176.5,0.5 176.5,1.5 181.5,1.5 184.5,1.5 "/>
<polygon class="st0" points="168.5,0.5 160.5,0.5 160.5,1.5 165.5,1.5 168.5,1.5 "/>
<polygon class="st0" points="152.5,0.5 144.5,0.5 144.5,1.5 149.5,1.5 152.5,1.5 "/>
<polygon class="st0" points="136.5,0.5 128.5,0.5 128.5,1.5 133.5,1.5 136.5,1.5 "/>
<polygon class="st0" points="120.5,0.5 112.5,0.5 112.5,1.5 117.5,1.5 120.5,1.5 "/>
<polygon class="st0" points="104.5,0.5 96.5,0.5 96.5,1.5 101.5,1.5 104.5,1.5 "/>
<polygon class="st0" points="88.5,0.5 80.5,0.5 80.5,1.5 85.5,1.5 88.5,1.5 "/>
<polygon class="st0" points="72.5,0.5 64.5,0.5 64.5,1.5 69.5,1.5 72.5,1.5 "/>
<polygon class="st0" points="56.5,0.5 48.5,0.5 48.5,1.5 53.5,1.5 56.5,1.5 "/>
<polygon class="st0" points="40.5,0.5 32.5,0.5 32.5,1.5 37.5,1.5 40.5,1.5 "/>
<polygon class="st0" points="24.5,0.5 16.5,0.5 16.5,1.5 21.5,1.5 24.5,1.5 "/>
</svg>
