<?xml version="1.0" encoding="utf-8"?>
<!-- Generator: Adobe Illustrator 25.2.1, SVG Export Plug-In . SVG Version: 6.00 Build 0)  -->
<svg version="1.1" id="Слой_1" xmlns="http://www.w3.org/2000/svg" xmlns:xlink="http://www.w3.org/1999/xlink" x="0px" y="0px"
	 viewBox="0 0 14 14" style="enable-background:new 0 0 14 14;" xml:space="preserve">
<style type="text/css">
	.st0{fill:#B7B7B7;}
</style>
<path class="st0" d="M7,0.3c-1.3,0-2.6,0.4-3.7,1.1c-1.1,0.7-2,1.8-2.5,3C0.3,5.7,0.2,7,0.5,8.3c0.3,1.3,0.9,2.5,1.8,3.4
	c0.9,0.9,2.1,1.6,3.4,1.8c1.3,0.3,2.6,0.1,3.9-0.4c1.2-0.5,2.3-1.4,3-2.5c0.7-1.1,1.1-2.4,1.1-3.7c0-0.9-0.2-1.7-0.5-2.6
	s-0.8-1.5-1.4-2.2c-0.6-0.6-1.4-1.1-2.2-1.4C8.7,0.5,7.9,0.3,7,0.3z M9.7,7.7H7c-0.2,0-0.3-0.1-0.5-0.2C6.4,7.3,6.3,7.2,6.3,7V4.3
	c0-0.2,0.1-0.3,0.2-0.5C6.7,3.7,6.8,3.7,7,3.7c0.2,0,0.3,0.1,0.5,0.2C7.6,4,7.7,4.2,7.7,4.3v2h2c0.2,0,0.3,0.1,0.5,0.2
	c0.1,0.1,0.2,0.3,0.2,0.5c0,0.2-0.1,0.3-0.2,0.5C10,7.6,9.8,7.7,9.7,7.7z"/>
</svg>
