<?xml version="1.0" encoding="utf-8"?>
<!-- Generator: Adobe Illustrator 25.2.1, SVG Export Plug-In . SVG Version: 6.00 Build 0)  -->
<svg version="1.1" id="Слой_1" xmlns="http://www.w3.org/2000/svg" xmlns:xlink="http://www.w3.org/1999/xlink" x="0px" y="0px"
	 viewBox="0 0 12 14" style="enable-background:new 0 0 12 14;" xml:space="preserve">
<style type="text/css">
	.st0{fill:#B7B7B7;}
</style>
<path class="st0" d="M6,6c0.6,0,1.2-0.2,1.7-0.5c0.5-0.3,0.9-0.8,1.1-1.3C9,3.6,9.1,3,8.9,2.4C8.8,1.8,8.5,1.3,8.1,0.9
	c-0.4-0.4-1-0.7-1.5-0.8S5.4,0,4.9,0.2s-1,0.6-1.3,1.1C3.2,1.8,3,2.4,3,3c0,0.8,0.3,1.6,0.9,2.1S5.2,6,6,6z"/>
<path class="st0" d="M11.1,14c0.2,0,0.4-0.1,0.6-0.3c0.2-0.2,0.3-0.4,0.3-0.6c0-1.6-0.6-3.2-1.8-4.3C9.1,7.6,7.6,7,6,7
	S2.9,7.6,1.8,8.8S0,11.5,0,13.1c0,0.2,0.1,0.5,0.3,0.6C0.4,13.9,0.6,14,0.9,14H11.1z"/>
</svg>
