<svg id="Слой_1" data-name="Слой 1" xmlns="http://www.w3.org/2000/svg" width="10.55" height="15" viewBox="0 0 10.55 15">
  <defs>
    <style>
      .cls-1 {
        fill: #b7b7b7;
      }
    </style>
  </defs>
  <path class="cls-1" d="M11.25,14.56,9.52,7.81A4.41,4.41,0,0,0,10.5,5a4.5,4.5,0,0,0-9,0,4.44,4.44,0,0,0,1,2.83L.75,14.56a.73.73,0,0,0,0,.44.76.76,0,0,0,.67.5.77.77,0,0,0,.42-.1l4-2.35,4.26,2.35a.64.64,0,0,0,.38.1.76.76,0,0,0,.61-.28.89.89,0,0,0,.15-.31A.83.83,0,0,0,11.25,14.56ZM6,2a3,3,0,0,1,1.67.51A3,3,0,0,1,8.94,5.59,3,3,0,0,1,4.85,7.77a3,3,0,0,1-1.34-1.1A3,3,0,0,1,3,5,3,3,0,0,1,6,2Z" transform="translate(-0.73 -0.5)"/>
</svg>
