<svg id="Слой_1" data-name="Слой 1" xmlns="http://www.w3.org/2000/svg" width="16" height="15.94" viewBox="0 0 16 15.94">
  <defs>
    <style>
      .cls-1 {
        fill: #010101;
      }
    </style>
  </defs>
  <path class="cls-1" d="M15.4,3.28,12.66.54A2,2,0,0,0,11.35,0,2.08,2.08,0,0,0,10,.47l-9,9a2.07,2.07,0,0,0-.57,1.21L0,14.85a1,1,0,0,0,.06.43,1,1,0,0,0,.23.37,1.19,1.19,0,0,0,.33.22,1,1,0,0,0,.38.07h.09l4.17-.38A1.91,1.91,0,0,0,6.47,15l9-9A1.93,1.93,0,0,0,16,4.62,1.9,1.9,0,0,0,15.4,3.28ZM5.08,13.56l-3,.28.27-3L8,5.26,10.7,8ZM12,6.62,9.32,3.94l1.95-2L14,4.67Z" transform="translate(0 0)"/>
</svg>
