<?xml version="1.0" encoding="utf-8"?>
<!-- Generator: Adobe Illustrator 25.2.1, SVG Export Plug-In . SVG Version: 6.00 Build 0)  -->
<svg version="1.1" id="Слой_1" xmlns="http://www.w3.org/2000/svg" xmlns:xlink="http://www.w3.org/1999/xlink" x="0px" y="0px"
	 viewBox="0 0 16 16" style="enable-background:new 0 0 16 16;" xml:space="preserve">
<style type="text/css">
	.st0{fill:#FEFEFE;}
</style>
<path class="st0" d="M15.4,3.3l-2.7-2.7C12.3,0.2,11.8,0,11.3,0c-0.5,0-1,0.2-1.3,0.5l-9,9c-0.3,0.3-0.5,0.8-0.6,1.2L0,14.9
	c0,0.1,0,0.3,0.1,0.4c0.1,0.1,0.1,0.3,0.2,0.4c0.1,0.1,0.2,0.2,0.3,0.2c0.1,0,0.3,0.1,0.4,0.1h0.1l4.2-0.4c0.5,0,0.9-0.2,1.2-0.6
	l9-9C15.8,5.6,16,5.1,16,4.6C16,4.1,15.8,3.6,15.4,3.3z M5.1,13.6l-3,0.3l0.3-3L8,5.3L10.7,8L5.1,13.6z M12,6.6L9.3,3.9l2-2L14,4.7
	L12,6.6z"/>
</svg>
