<svg id="Слой_1" data-name="Слой 1" xmlns="http://www.w3.org/2000/svg" viewBox="0 0 20 28.13">
  <defs>
    <style>
      .cls-1 {
        fill: #fff;
      }
    </style>
  </defs>
  <path class="cls-1" d="M22.94,8.93a1.31,1.31,0,0,0-.41-1q-3.26-3.21-6.47-6.46a1.15,1.15,0,0,0-.88-.36H5a1.88,1.88,0,0,0-2.1,2.1V27.16A1.88,1.88,0,0,0,5,29.25H20.84a1.88,1.88,0,0,0,2.09-2.08V18.11C22.93,15.05,22.92,12,22.94,8.93Zm-14.87,6H17.7c.64,0,1,.43.74.91a.67.67,0,0,1-.7.33H8.07c-.52,0-.81-.22-.81-.62S7.56,14.89,8.07,14.89ZM8.13,18c1.61,0,3.21,0,4.82,0s3.24,0,4.87,0c.57,0,.89.43.67.88a.73.73,0,0,1-.78.36H8.15c-.55,0-.85-.23-.84-.64S7.6,18,8.13,18Zm9.46,4.36H8.28a3.54,3.54,0,0,1-.46,0,.57.57,0,0,1-.51-.61.58.58,0,0,1,.49-.59,2.33,2.33,0,0,1,.46,0H17.6c.63,0,.95.2,1,.61S18.26,22.37,17.59,22.37ZM18.11,8c-.45,0-.91,0-1.37,0s-.65-.16-.66-.55c0-1.35,0-2.7,0-4L20.64,8Z" transform="translate(-2.94 -1.12)"/>
</svg>
