<svg id="Слой_1" data-name="Слой 1" xmlns="http://www.w3.org/2000/svg" viewBox="0 0 18 18">
  <defs>
    <style>
      .cls-1 {
        fill: #fff;
      }
    </style>
  </defs>
  <path class="cls-1" d="M15,18H3a3,3,0,0,1-3-3V3A3,3,0,0,1,3,0H15a3,3,0,0,1,3,3V15A3,3,0,0,1,15,18ZM2,13.41V15a1,1,0,0,0,1,1H15a1,1,0,0,0,1-1V11.41l-1.29-1.29a1,1,0,0,0-1.42,0l-.88.88,1.3,1.29a1,1,0,0,1-1.42,1.42l-2-2h0L7.71,9.12a1,1,0,0,0-1.42,0ZM3,2A1,1,0,0,0,2,3v7.59L4.88,7.71a3.06,3.06,0,0,1,4.24,0L11,9.59l.88-.88A3,3,0,0,1,16,8.59V3a1,1,0,0,0-1-1Zm8,4a1,1,0,1,1,0-2h0a1,1,0,0,1,0,2Z"/>
</svg>
