<svg width="12" height="22" viewBox="0 0 12 22" fill="none" xmlns="http://www.w3.org/2000/svg">
<path d="M9.74451 21.4999C9.52042 21.5007 9.29901 21.4512 9.09654 21.3552C8.89407 21.2591 8.71569 21.119 8.57451 20.9449L1.32951 11.9449C1.10889 11.6765 0.988281 11.3399 0.988281 10.9924C0.988281 10.645 1.10889 10.3083 1.32951 10.0399L8.82951 1.03993C9.08412 0.7336 9.44999 0.540964 9.84663 0.504394C10.2433 0.467825 10.6382 0.590317 10.9445 0.844925C11.2508 1.09953 11.4435 1.4654 11.48 1.86204C11.5166 2.25868 11.3941 2.6536 11.1395 2.95992L4.43451 10.9999L10.9145 19.0399C11.0979 19.2601 11.2145 19.5282 11.2503 19.8125C11.2861 20.0969 11.2397 20.3855 11.1166 20.6443C10.9935 20.9031 10.7989 21.1212 10.5557 21.2728C10.3126 21.4245 10.0311 21.5033 9.74451 21.4999Z" fill="#FEFEFE"/>
</svg>
