<svg width="23" height="28" viewBox="0 0 23 28" fill="none" xmlns="http://www.w3.org/2000/svg">
<path d="M11.4674 0.666992C7.79145 0.666992 4.80078 3.65766 4.80078 7.33366V10.0003H3.46745C1.99678 10.0003 0.800781 11.1963 0.800781 12.667V24.667C0.800781 26.1377 1.99678 27.3337 3.46745 27.3337H19.4674C20.9381 27.3337 22.1341 26.1377 22.1341 24.667V12.667C22.1341 11.1963 20.9381 10.0003 19.4674 10.0003H18.1341V7.33366C18.1341 3.65766 15.1434 0.666992 11.4674 0.666992ZM7.46745 7.33366C7.46745 5.12833 9.26211 3.33366 11.4674 3.33366C13.6728 3.33366 15.4674 5.12833 15.4674 7.33366V10.0003H7.46745V7.33366ZM19.4701 24.667H12.8008V21.6297C13.5941 21.167 14.1341 20.3163 14.1341 19.3337C14.1341 17.863 12.9381 16.667 11.4674 16.667C9.99678 16.667 8.80078 17.863 8.80078 19.3337C8.80078 20.315 9.34078 21.167 10.1341 21.6297V24.667H3.46745V12.667H19.4674L19.4701 24.667Z" fill="#B9B9BA"/>
</svg>
