<svg width="9" height="12" viewBox="0 0 9 12" fill="none" xmlns="http://www.w3.org/2000/svg">
<path d="M4.55921 0.333008C2.22941 0.333008 0.333984 2.22843 0.333984 4.55821C0.333984 7.44955 4.11515 11.6942 4.27614 11.8735C4.42735 12.0419 4.69135 12.0416 4.84229 11.8735C5.00328 11.6942 8.78444 7.44955 8.78444 4.55821C8.7844 2.22843 6.88899 0.333008 4.55921 0.333008ZM4.55921 6.68403C3.38703 6.68403 2.43342 5.7304 2.43342 4.55821C2.43342 3.38603 3.38705 2.43242 4.55921 2.43242C5.73137 2.43242 6.68499 3.38605 6.68499 4.55824C6.68499 5.73042 5.73137 6.68403 4.55921 6.68403Z" fill="#717171"/>
</svg>
