<svg width="25" height="17" viewBox="0 0 25 17" fill="none" xmlns="http://www.w3.org/2000/svg">
<path d="M22.2443 16.9027H2.69318C1.46565 16.9027 0.46875 15.9058 0.46875 14.6782V2.22442C0.46875 0.996897 1.46565 0 2.69318 0H22.2443C23.4718 0 24.4688 0.996897 24.4688 2.22442V14.6708C24.4688 15.9058 23.4718 16.9027 22.2443 16.9027Z" fill="#36495D"/>
<path d="M14.4893 4.8252H10.457V12.0713H14.4893V4.8252Z" fill="#F16522"/>
<path d="M10.7069 8.44786C10.7069 6.97483 11.3987 5.6729 12.47 4.8248C11.6889 4.20731 10.6994 3.84277 9.6207 3.84277C7.07638 3.84277 5.01562 5.90353 5.01562 8.44786C5.01562 10.9922 7.07638 13.0529 9.6207 13.0529C10.692 13.0529 11.6814 12.6884 12.47 12.0709C11.3987 11.2228 10.7069 9.92089 10.7069 8.44786Z" fill="#E41B24"/>
<path d="M19.9271 8.44786C19.9271 10.9922 17.8663 13.0529 15.322 13.0529C14.2507 13.0529 13.2612 12.6884 12.4727 12.0709C13.544 11.2303 14.2284 9.92089 14.2284 8.44786C14.2284 6.97483 13.544 5.6729 12.4727 4.8248C13.2538 4.20731 14.2433 3.84277 15.322 3.84277C17.8663 3.84277 19.9271 5.90353 19.9271 8.44786ZM19.4882 11.3046V11.1559H19.5477V11.1261H19.3989V11.1559H19.4584V11.3046H19.4882ZM19.7857 11.3046V11.1261H19.7411L19.689 11.2526L19.6369 11.1261H19.5923V11.3046H19.6221V11.1707L19.6741 11.2898H19.7113L19.7634 11.1707V11.3046H19.7857Z" fill="#F89E1C"/>
</svg>
