<svg width="50" height="50" viewBox="0 0 50 50" fill="none" xmlns="http://www.w3.org/2000/svg">
<path d="M25 0C20.0555 0 15.222 1.46622 11.1108 4.21326C6.99953 6.9603 3.79521 10.8648 1.90302 15.4329C0.0108321 20.0011 -0.484251 25.0277 0.480379 29.8773C1.44501 34.7268 3.82603 39.1814 7.32234 42.6777C10.8187 46.174 15.2732 48.555 20.1228 49.5196C24.9723 50.4843 29.9989 49.9892 34.5671 48.097C39.1352 46.2048 43.0397 43.0005 45.7867 38.8893C48.5338 34.778 50 29.9445 50 25C50 21.717 49.3534 18.4661 48.097 15.4329C46.8406 12.3998 44.9991 9.6438 42.6777 7.32233C40.3562 5.00087 37.6002 3.15938 34.5671 1.90301C31.534 0.646644 28.2831 0 25 0ZM25 45C21.0444 45 17.1776 43.827 13.8886 41.6294C10.5996 39.4318 8.03617 36.3082 6.52242 32.6537C5.00867 28.9991 4.6126 24.9778 5.38431 21.0982C6.15601 17.2186 8.06082 13.6549 10.8579 10.8579C13.6549 8.06081 17.2186 6.156 21.0982 5.38429C24.9778 4.61259 28.9992 5.00866 32.6537 6.52241C36.3082 8.03616 39.4318 10.5996 41.6294 13.8886C43.827 17.1776 45 21.0444 45 25C45 30.3043 42.8929 35.3914 39.1421 39.1421C35.3914 42.8929 30.3043 45 25 45Z" fill="#FF766B"/>
<path d="M31.7758 18.2258C31.5434 17.9915 31.2669 17.8055 30.9623 17.6786C30.6576 17.5517 30.3309 17.4863 30.0008 17.4863C29.6708 17.4863 29.344 17.5517 29.0394 17.6786C28.7347 17.8055 28.4582 17.9915 28.2258 18.2258L25.0008 21.4758L21.7758 18.2258C21.3051 17.7551 20.6666 17.4906 20.0008 17.4906C19.3351 17.4906 18.6966 17.7551 18.2258 18.2258C17.7551 18.6966 17.4906 19.3351 17.4906 20.0008C17.4906 20.6666 17.7551 21.3051 18.2258 21.7758L21.4758 25.0008L18.2258 28.2258C17.9915 28.4582 17.8055 28.7347 17.6786 29.0394C17.5517 29.344 17.4863 29.6708 17.4863 30.0008C17.4863 30.3309 17.5517 30.6576 17.6786 30.9623C17.8055 31.2669 17.9915 31.5434 18.2258 31.7758C18.4582 32.0101 18.7347 32.1961 19.0394 32.3231C19.344 32.45 19.6708 32.5153 20.0008 32.5153C20.3309 32.5153 20.6576 32.45 20.9623 32.3231C21.2669 32.1961 21.5434 32.0101 21.7758 31.7758L25.0008 28.5258L28.2258 31.7758C28.4582 32.0101 28.7347 32.1961 29.0394 32.3231C29.344 32.45 29.6708 32.5153 30.0008 32.5153C30.3309 32.5153 30.6576 32.45 30.9623 32.3231C31.2669 32.1961 31.5434 32.0101 31.7758 31.7758C32.0102 31.5434 32.1961 31.2669 32.3231 30.9623C32.45 30.6576 32.5153 30.3309 32.5153 30.0008C32.5153 29.6708 32.45 29.344 32.3231 29.0394C32.1961 28.7347 32.0102 28.4582 31.7758 28.2258L28.5258 25.0008L31.7758 21.7758C32.0102 21.5434 32.1961 21.2669 32.3231 20.9623C32.45 20.6576 32.5153 20.3309 32.5153 20.0008C32.5153 19.6708 32.45 19.344 32.3231 19.0394C32.1961 18.7347 32.0102 18.4582 31.7758 18.2258Z" fill="#FF766B"/>
</svg>
