<svg width="21" height="14" viewBox="0 0 21 14" fill="none" xmlns="http://www.w3.org/2000/svg">
<path d="M17.5 0H3.5C2.70435 0 1.94129 0.316071 1.37868 0.87868C0.816071 1.44129 0.5 2.20435 0.5 3V11C0.5 11.7956 0.816071 12.5587 1.37868 13.1213C1.94129 13.6839 2.70435 14 3.5 14H17.5C18.2956 14 19.0587 13.6839 19.6213 13.1213C20.1839 12.5587 20.5 11.7956 20.5 11V3C20.5 2.20435 20.1839 1.44129 19.6213 0.87868C19.0587 0.316071 18.2956 0 17.5 0ZM2.5 3C2.5 2.73478 2.60536 2.48043 2.79289 2.29289C2.98043 2.10536 3.23478 2 3.5 2H17.5C17.7652 2 18.0196 2.10536 18.2071 2.29289C18.3946 2.48043 18.5 2.73478 18.5 3V4H2.5V3ZM18.5 11C18.5 11.2652 18.3946 11.5196 18.2071 11.7071C18.0196 11.8946 17.7652 12 17.5 12H3.5C3.23478 12 2.98043 11.8946 2.79289 11.7071C2.60536 11.5196 2.5 11.2652 2.5 11V6H18.5V11Z" fill="#141517"/>
<path d="M5.5 10H9.5C9.76522 10 10.0196 9.89464 10.2071 9.70711C10.3946 9.51957 10.5 9.26522 10.5 9C10.5 8.73478 10.3946 8.48043 10.2071 8.29289C10.0196 8.10536 9.76522 8 9.5 8H5.5C5.23478 8 4.98043 8.10536 4.79289 8.29289C4.60536 8.48043 4.5 8.73478 4.5 9C4.5 9.26522 4.60536 9.51957 4.79289 9.70711C4.98043 9.89464 5.23478 10 5.5 10Z" fill="#141517"/>
<path d="M13.5 10H15.5C15.7652 10 16.0196 9.89464 16.2071 9.70711C16.3946 9.51957 16.5 9.26522 16.5 9C16.5 8.73478 16.3946 8.48043 16.2071 8.29289C16.0196 8.10536 15.7652 8 15.5 8H13.5C13.2348 8 12.9804 8.10536 12.7929 8.29289C12.6054 8.48043 12.5 8.73478 12.5 9C12.5 9.26522 12.6054 9.51957 12.7929 9.70711C12.9804 9.89464 13.2348 10 13.5 10Z" fill="#141517"/>
</svg>
