<svg width="25" height="17" viewBox="0 0 25 17" fill="none" xmlns="http://www.w3.org/2000/svg">
<path d="M22.2369 16.9027H2.69318C1.46565 16.9027 0.46875 15.9058 0.46875 14.6782V2.22442C0.46875 0.996899 1.46565 0 2.69318 0H22.2443C23.4718 0 24.4688 0.996899 24.4688 2.22442V14.6708C24.4613 15.9058 23.4719 16.9027 22.2369 16.9027Z" fill="#253B80"/>
<path d="M6.23212 7.43944C6.15772 7.90813 5.80063 7.90813 5.45841 7.90813H5.25754L5.39889 7.03026C5.40633 6.97819 5.45097 6.94099 5.50304 6.94099H5.59232C5.83038 6.94099 6.05357 6.94099 6.16516 7.0749C6.23212 7.15674 6.25444 7.27577 6.23212 7.43944ZM6.07589 6.21191H4.77397C4.6847 6.21191 4.6103 6.27887 4.59542 6.36815L4.06721 9.72338C4.05978 9.79034 4.10441 9.84985 4.17137 9.84985H4.79629C4.88556 9.84985 4.95996 9.7829 4.97484 9.69362L5.11619 8.786C5.13107 8.69673 5.20546 8.62977 5.29474 8.62977H5.71135C6.57434 8.62977 7.07278 8.21315 7.19926 7.38736C7.25877 7.02282 7.19926 6.74012 7.03559 6.54669C6.84216 6.33095 6.51482 6.21191 6.07589 6.21191Z" fill="white"/>
<path d="M9.11095 8.64484C9.05143 9.00194 8.76873 9.24 8.40419 9.24C8.22564 9.24 8.07685 9.18049 7.98757 9.06889C7.8983 8.9573 7.8611 8.80107 7.89086 8.62996C7.95037 8.27286 8.23308 8.02735 8.59018 8.02735C8.76873 8.02735 8.91008 8.08687 9.00679 8.19846C9.10351 8.31006 9.14071 8.46629 9.11095 8.64484ZM9.98882 7.42475H9.3639C9.31182 7.42475 9.26718 7.46195 9.25974 7.51403L9.22998 7.69257L9.18534 7.62562C9.05143 7.43219 8.74641 7.36523 8.44883 7.36523C7.75695 7.36523 7.16922 7.886 7.05019 8.62252C6.99067 8.98706 7.07251 9.33672 7.28081 9.58222C7.47424 9.80541 7.74207 9.90212 8.06941 9.90212C8.62738 9.90212 8.9324 9.54502 8.9324 9.54502L8.90264 9.71613C8.8952 9.78309 8.93984 9.84261 9.00679 9.84261H9.5722C9.66148 9.84261 9.73587 9.77565 9.75075 9.68637L10.0855 7.54378C10.1004 7.48427 10.0558 7.42475 9.98882 7.42475Z" fill="white"/>
<path d="M13.3242 7.42383H12.6919C12.6324 7.42383 12.5729 7.45359 12.5431 7.50566L11.6727 8.78527L11.3081 7.55774C11.2858 7.48335 11.2114 7.43127 11.137 7.43127H10.5195C10.4451 7.43127 10.3931 7.50566 10.4154 7.57262L11.1072 9.60362L10.4526 10.5261C10.4005 10.6005 10.4526 10.6972 10.5418 10.6972H11.1668C11.2263 10.6972 11.2858 10.6675 11.3156 10.6228L13.4061 7.60238C13.4582 7.52054 13.4135 7.42383 13.3242 7.42383Z" fill="white"/>
<path d="M15.5564 7.43944C15.482 7.90813 15.1249 7.90813 14.7826 7.90813H14.5892L14.7306 7.03026C14.738 6.97819 14.7826 6.94099 14.8347 6.94099H14.924C15.1621 6.94099 15.3852 6.94099 15.4968 7.0749C15.5638 7.15674 15.5787 7.27577 15.5564 7.43944ZM15.4076 6.21191H14.0982C14.0089 6.21191 13.9345 6.27887 13.9196 6.36815L13.3914 9.72338C13.384 9.79034 13.4286 9.84985 13.4956 9.84985H14.1652C14.2247 9.84985 14.2842 9.80522 14.2916 9.7457L14.4404 8.79344C14.4553 8.70416 14.5297 8.63721 14.619 8.63721H15.0356C15.8986 8.63721 16.397 8.22059 16.5235 7.3948C16.583 7.03026 16.5235 6.74756 16.3598 6.55413C16.1738 6.33095 15.8391 6.21191 15.4076 6.21191Z" fill="white"/>
<path d="M18.4387 8.64484C18.3792 9.00194 18.0965 9.24 17.7319 9.24C17.5534 9.24 17.4046 9.18049 17.3153 9.06889C17.2261 8.9573 17.1889 8.80107 17.2186 8.62996C17.2781 8.27286 17.5608 8.02735 17.9179 8.02735C18.0965 8.02735 18.2378 8.08687 18.3346 8.19846C18.4238 8.31006 18.461 8.46629 18.4387 8.64484ZM19.3091 7.42475H18.6842C18.6321 7.42475 18.5875 7.46195 18.5801 7.51403L18.5503 7.69257L18.5057 7.62562C18.3718 7.43219 18.0667 7.36523 17.7691 7.36523C17.0773 7.36523 16.4895 7.886 16.3705 8.62252C16.311 8.98706 16.3928 9.33672 16.6011 9.58222C16.7946 9.80541 17.0624 9.90212 17.3897 9.90212C17.9477 9.90212 18.2527 9.54502 18.2527 9.54502L18.223 9.71613C18.2155 9.78309 18.2602 9.84261 18.3271 9.84261H18.8925C18.9818 9.84261 19.0562 9.77565 19.0711 9.68637L19.4133 7.54378C19.4282 7.48427 19.3761 7.42475 19.3091 7.42475Z" fill="white"/>
<path d="M20.0443 6.30863L19.5086 9.72338C19.5012 9.79034 19.5458 9.84985 19.6128 9.84985H20.1559C20.2451 9.84985 20.3195 9.7829 20.3344 9.69362L20.8626 6.33839C20.8701 6.27143 20.8254 6.21191 20.7585 6.21191H20.1559C20.0963 6.21191 20.0517 6.24911 20.0443 6.30863Z" fill="white"/>
</svg>
