<svg width="10" height="9" viewBox="0 0 10 9" fill="none" xmlns="http://www.w3.org/2000/svg">
<path d="M7.77844 8.99768C7.6983 8.99798 7.61926 8.98012 7.54794 8.94559L4.99248 7.68146L2.43702 8.94559C2.35404 8.98682 2.26048 9.00523 2.16698 8.99872C2.07348 8.99221 1.98379 8.96104 1.90811 8.90876C1.83242 8.85648 1.77378 8.78518 1.73884 8.70298C1.7039 8.62077 1.69407 8.53095 1.71047 8.44373L2.21154 5.77815L0.147129 3.88431C0.0827205 3.82358 0.0370298 3.74742 0.0149607 3.66401C-0.00710834 3.5806 -0.00472272 3.49308 0.0218616 3.41085C0.0509036 3.32671 0.104326 3.25194 0.176066 3.19503C0.247807 3.13812 0.334992 3.10136 0.427729 3.0889L3.28383 2.69593L4.54152 0.267083C4.58255 0.187035 4.64661 0.119526 4.72637 0.0722896C4.80613 0.0250532 4.89835 0 4.99248 0C5.08661 0 5.17884 0.0250532 5.2586 0.0722896C5.33835 0.119526 5.40242 0.187035 5.44345 0.267083L6.71617 2.6912L9.57227 3.08417C9.66501 3.09662 9.75219 3.13339 9.82393 3.1903C9.89567 3.2472 9.9491 3.32197 9.97814 3.40612C10.0047 3.48835 10.0071 3.57586 9.98504 3.65928C9.96297 3.74269 9.91728 3.81885 9.85287 3.87958L7.78846 5.77342L8.28953 8.43899C8.30742 8.52776 8.29805 8.6195 8.26254 8.7034C8.22702 8.78729 8.16684 8.85983 8.0891 8.91245C7.99837 8.97253 7.88911 9.0025 7.77844 8.99768Z" fill="black"/>
</svg>
