<svg width="28" height="27" viewBox="0 0 28 27" fill="none" xmlns="http://www.w3.org/2000/svg">
<path d="M21.413 25.9999C21.1998 26.0008 20.9895 25.9505 20.7997 25.8533L13.9997 22.2933L7.19968 25.8533C6.97887 25.9694 6.72992 26.0212 6.48112 26.0029C6.23232 25.9845 5.99365 25.8968 5.79226 25.7495C5.59086 25.6023 5.4348 25.4015 5.34184 25.17C5.24887 24.9385 5.22271 24.6856 5.26635 24.4399L6.59968 16.9333L1.10635 11.5999C0.93496 11.4289 0.813379 11.2144 0.754654 10.9795C0.695929 10.7446 0.702277 10.4982 0.773017 10.2666C0.850297 10.0296 0.992452 9.81908 1.18335 9.65882C1.37425 9.49856 1.60625 9.39502 1.85302 9.35995L9.45302 8.25328L12.7997 1.41328C12.9089 1.18785 13.0793 0.997736 13.2916 0.864711C13.5038 0.731686 13.7492 0.661133 13.9997 0.661133C14.2502 0.661133 14.4956 0.731686 14.7078 0.864711C14.92 0.997736 15.0905 1.18785 15.1997 1.41328L18.5863 8.23994L26.1864 9.34661C26.4331 9.38169 26.6651 9.48523 26.856 9.64549C27.0469 9.80575 27.1891 10.0163 27.2664 10.2533C27.3371 10.4848 27.3434 10.7313 27.2847 10.9662C27.226 11.2011 27.1044 11.4156 26.933 11.5866L21.4397 16.9199L22.773 24.4266C22.8206 24.6766 22.7957 24.9349 22.7012 25.1712C22.6067 25.4075 22.4465 25.6118 22.2397 25.7599C21.9982 25.9291 21.7075 26.0135 21.413 25.9999ZM13.9997 19.4666C14.2134 19.4612 14.4248 19.5118 14.613 19.6133L19.6397 22.2799L18.6797 16.6666C18.6424 16.4523 18.6582 16.2321 18.7256 16.0252C18.793 15.8184 18.91 15.6312 19.0664 15.4799L23.0664 11.5733L17.4664 10.7466C17.261 10.7053 17.0683 10.6161 16.9038 10.4864C16.7393 10.3567 16.6077 10.19 16.5197 9.99995L13.9997 4.99995L11.4797 9.99995C11.3832 10.1916 11.2419 10.3571 11.0678 10.4824C10.8938 10.6077 10.692 10.6892 10.4797 10.7199L4.87968 11.5466L8.87968 15.4533C9.03605 15.6045 9.15304 15.7917 9.22044 15.9986C9.28783 16.2054 9.3036 16.4256 9.26635 16.6399L8.30635 22.1866L13.333 19.5199C13.546 19.4408 13.7768 19.4223 13.9997 19.4666Z" fill="black"/>
</svg>
