<svg width="19" height="20" viewBox="0 0 19 20" fill="none" xmlns="http://www.w3.org/2000/svg">
<path d="M15.5 2H14.5V1C14.5 0.734784 14.3946 0.48043 14.2071 0.292893C14.0196 0.105357 13.7652 0 13.5 0C13.2348 0 12.9804 0.105357 12.7929 0.292893C12.6054 0.48043 12.5 0.734784 12.5 1V2H6.5V1C6.5 0.734784 6.39464 0.48043 6.20711 0.292893C6.01957 0.105357 5.76522 0 5.5 0C5.23478 0 4.98043 0.105357 4.79289 0.292893C4.60536 0.48043 4.5 0.734784 4.5 1V2H3.5C2.70435 2 1.94129 2.31607 1.37868 2.87868C0.816071 3.44129 0.5 4.20435 0.5 5V17C0.5 17.7956 0.816071 18.5587 1.37868 19.1213C1.94129 19.6839 2.70435 20 3.5 20H15.5C16.2956 20 17.0587 19.6839 17.6213 19.1213C18.1839 18.5587 18.5 17.7956 18.5 17V5C18.5 4.20435 18.1839 3.44129 17.6213 2.87868C17.0587 2.31607 16.2956 2 15.5 2ZM3.5 4H4.5V5C4.5 5.26522 4.60536 5.51957 4.79289 5.70711C4.98043 5.89464 5.23478 6 5.5 6C5.76522 6 6.01957 5.89464 6.20711 5.70711C6.39464 5.51957 6.5 5.26522 6.5 5V4H12.5V5C12.5 5.26522 12.6054 5.51957 12.7929 5.70711C12.9804 5.89464 13.2348 6 13.5 6C13.7652 6 14.0196 5.89464 14.2071 5.70711C14.3946 5.51957 14.5 5.26522 14.5 5V4H15.5C15.7652 4 16.0196 4.10536 16.2071 4.29289C16.3946 4.48043 16.5 4.73478 16.5 5V9H2.5V5C2.5 4.73478 2.60536 4.48043 2.79289 4.29289C2.98043 4.10536 3.23478 4 3.5 4ZM15.5 18H3.5C3.23478 18 2.98043 17.8946 2.79289 17.7071C2.60536 17.5196 2.5 17.2652 2.5 17V11H16.5V17C16.5 17.2652 16.3946 17.5196 16.2071 17.7071C16.0196 17.8946 15.7652 18 15.5 18Z" fill="#141517"/>
<path d="M5.5 15C6.05228 15 6.5 14.5523 6.5 14C6.5 13.4477 6.05228 13 5.5 13C4.94772 13 4.5 13.4477 4.5 14C4.5 14.5523 4.94772 15 5.5 15Z" fill="#141517"/>
<path d="M13.5 13H9.5C9.23478 13 8.98043 13.1054 8.79289 13.2929C8.60536 13.4804 8.5 13.7348 8.5 14C8.5 14.2652 8.60536 14.5196 8.79289 14.7071C8.98043 14.8946 9.23478 15 9.5 15H13.5C13.7652 15 14.0196 14.8946 14.2071 14.7071C14.3946 14.5196 14.5 14.2652 14.5 14C14.5 13.7348 14.3946 13.4804 14.2071 13.2929C14.0196 13.1054 13.7652 13 13.5 13Z" fill="#141517"/>
</svg>
