<svg id="Слой_1" data-name="Слой 1" xmlns="http://www.w3.org/2000/svg" viewBox="0 0 20 20">
  <defs>
    <style>
      .cls-1 {
        fill: #fff;
      }
    </style>
  </defs>
  <g>
    <path d="M19.24,6.17A10,10,0,0,0,13.83.76,10,10,0,0,0,.19,12,10,10,0,0,0,20,10,10.1,10.1,0,0,0,19.24,6.17ZM14.47,7.23a1,1,0,0,1-.17.35v0l-4.57,6a1,1,0,0,1-.35.29,1.13,1.13,0,0,1-.44.1,1,1,0,0,1-.44-.1.87.87,0,0,1-.35-.28L5.71,10.51a1.06,1.06,0,0,1-.18-.35,1,1,0,0,1,0-.39.81.81,0,0,1,.12-.37,1,1,0,0,1,.26-.3,1,1,0,0,1,.73-.2A1.15,1.15,0,0,1,7,9a1.08,1.08,0,0,1,.3.26l1.63,2.08,3.78-5A1,1,0,0,1,13,6.1,1,1,0,0,1,13.37,6a1,1,0,0,1,.39,0,1,1,0,0,1,.35.17,1,1,0,0,1,.26.29,1,1,0,0,1,.13.38A1,1,0,0,1,14.47,7.23Z"/>
    <path class="cls-1" d="M14.11,6.17A1,1,0,0,0,13.76,6a1,1,0,0,0-.39,0A1,1,0,0,0,13,6.1a1,1,0,0,0-.29.26l-3.78,5L7.29,9.28A1.08,1.08,0,0,0,7,9a1.15,1.15,0,0,0-.37-.12,1,1,0,0,0-.73.2,1,1,0,0,0-.26.3.81.81,0,0,0-.12.37,1,1,0,0,0,0,.39,1.06,1.06,0,0,0,.18.35l2.44,3.11a.87.87,0,0,0,.35.28,1,1,0,0,0,.44.1,1.13,1.13,0,0,0,.44-.1,1,1,0,0,0,.35-.29l4.57-6v0a1,1,0,0,0,.17-.35,1,1,0,0,0,0-.39,1,1,0,0,0-.13-.38A1,1,0,0,0,14.11,6.17Z"/>
  </g>
</svg>
