<svg width="15" height="16" viewBox="0 0 15 16" fill="none" xmlns="http://www.w3.org/2000/svg">
<path d="M14.5325 8.5212C14.5757 8.46696 14.6131 8.40829 14.6439 8.34619L14.6916 8.29846C14.7252 8.21402 14.7432 8.12417 14.7447 8.0333C14.7419 7.946 14.724 7.85986 14.6916 7.77874L14.6439 7.73101C14.6323 7.6448 14.6035 7.56182 14.559 7.48706L14.5325 7.46054C14.4878 7.39981 14.4342 7.34617 14.3734 7.30144L1.6455 0.937481C1.50453 0.866253 1.34466 0.84135 1.1887 0.866324C1.03274 0.891298 0.888643 0.964873 0.776956 1.07656C0.665269 1.18825 0.591694 1.33234 0.56672 1.4883C0.541747 1.64427 0.566649 1.80413 0.637877 1.94511L3.65545 7.97496L0.637876 14.0048C0.566648 14.1458 0.541747 14.3057 0.566721 14.4616C0.591694 14.6176 0.665269 14.7617 0.776955 14.8734C0.888642 14.985 1.03274 15.0586 1.1887 15.0836C1.34466 15.1086 1.50453 15.0837 1.6455 15.0124L14.3734 8.64848C14.432 8.61349 14.4855 8.57067 14.5325 8.5212ZM10.8255 7.2431H4.91764L2.95012 3.30275L10.8255 7.2431ZM2.95012 12.679L4.91764 8.73864L10.8255 8.73864L2.95012 12.679Z" fill="#FEFEFE"/>
</svg>
