<svg width="25" height="24" viewBox="0 0 25 24" fill="none" xmlns="http://www.w3.org/2000/svg">
<path d="M20.4992 15.7501C19.5172 15.7509 18.5747 16.1369 17.8742 16.8251L7.99919 12.4251V12.0001V11.5876L17.8742 7.17511C18.4927 7.78139 19.302 8.15487 20.1647 8.23213C21.0273 8.30939 21.8901 8.08566 22.6065 7.59895C23.3229 7.11223 23.8488 6.39254 24.0948 5.5621C24.3407 4.73166 24.2917 3.84168 23.9559 3.04331C23.6202 2.24494 23.0184 1.5874 22.2528 1.18238C21.4873 0.777354 20.6051 0.649815 19.7562 0.821422C18.9072 0.99303 18.1439 1.4532 17.5957 2.12378C17.0476 2.79437 16.7485 3.63401 16.7492 4.50011V4.92511L6.87419 9.32511C6.34714 8.8073 5.67887 8.45673 4.95327 8.3174C4.22767 8.17806 3.47708 8.25618 2.79572 8.54195C2.11437 8.82771 1.53261 9.30838 1.12348 9.92362C0.714357 10.5389 0.496094 11.2613 0.496094 12.0001C0.496094 12.739 0.714357 13.4614 1.12348 14.0766C1.53261 14.6918 2.11437 15.1725 2.79572 15.4583C3.47708 15.744 4.22767 15.8222 4.95327 15.6828C5.67887 15.5435 6.34714 15.1929 6.87419 14.6751L16.7492 19.0876V19.5001C16.7492 20.2418 16.9691 20.9668 17.3812 21.5835C17.7932 22.2002 18.3789 22.6808 19.0641 22.9647C19.7493 23.2485 20.5033 23.3228 21.2308 23.1781C21.9582 23.0334 22.6264 22.6762 23.1508 22.1518C23.6753 21.6273 24.0324 20.9591 24.1771 20.2317C24.3218 19.5043 24.2476 18.7503 23.9637 18.0651C23.6799 17.3798 23.1993 16.7942 22.5826 16.3821C21.9659 15.97 21.2409 15.7501 20.4992 15.7501ZM20.4992 3.25011C20.7464 3.25011 20.9881 3.32342 21.1936 3.46078C21.3992 3.59813 21.5594 3.79335 21.654 4.02176C21.7486 4.25017 21.7734 4.5015 21.7252 4.74398C21.6769 4.98645 21.5579 5.20918 21.3831 5.384C21.2083 5.55881 20.9855 5.67786 20.7431 5.72609C20.5006 5.77433 20.2492 5.74957 20.0208 5.65496C19.7924 5.56035 19.5972 5.40014 19.4598 5.19458C19.3225 4.98901 19.2492 4.74734 19.2492 4.50011C19.2492 4.16859 19.3809 3.85065 19.6153 3.61623C19.8497 3.38181 20.1677 3.25011 20.4992 3.25011ZM4.24919 13.2501C4.00196 13.2501 3.76029 13.1768 3.55472 13.0394C3.34916 12.9021 3.18895 12.7069 3.09434 12.4785C2.99973 12.2501 2.97497 11.9987 3.02321 11.7562C3.07144 11.5138 3.19049 11.291 3.3653 11.1162C3.54012 10.9414 3.76285 10.8224 4.00532 10.7741C4.2478 10.7259 4.49913 10.7507 4.72754 10.8453C4.95595 10.9399 5.15117 11.1001 5.28852 11.3056C5.42588 11.5112 5.49919 11.7529 5.49919 12.0001C5.49919 12.3316 5.36749 12.6496 5.13307 12.884C4.89865 13.1184 4.58071 13.2501 4.24919 13.2501ZM20.4992 20.7501C20.252 20.7501 20.0103 20.6768 19.8047 20.5395C19.5992 20.4021 19.4389 20.2069 19.3443 19.9785C19.2497 19.7501 19.225 19.4987 19.2732 19.2562C19.3214 19.0138 19.4405 18.791 19.6153 18.6162C19.7901 18.4414 20.0128 18.3224 20.2553 18.2741C20.4978 18.2259 20.7491 18.2507 20.9775 18.3453C21.2059 18.4399 21.4012 18.6001 21.5385 18.8056C21.6759 19.0112 21.7492 19.2529 21.7492 19.5001C21.7492 19.8316 21.6175 20.1496 21.3831 20.384C21.1487 20.6184 20.8307 20.7501 20.4992 20.7501Z" fill="#FEFEFE"/>
</svg>
