<svg width="19" height="20" viewBox="0 0 19 20" fill="none" xmlns="http://www.w3.org/2000/svg">
<path d="M9.50008 19.8498C9.15063 19.8553 8.80584 19.7691 8.50008 19.5998L8.20008 19.4298C5.86335 18.1077 3.91934 16.1892 2.56655 13.8702C1.21377 11.5511 0.50067 8.91457 0.50008 6.22978V6.08979C0.49691 5.73567 0.587819 5.38707 0.763514 5.0796C0.939209 4.77214 1.19339 4.51683 1.50008 4.33979L8.50008 0.399785C8.80412 0.224249 9.14901 0.131836 9.50008 0.131836C9.85115 0.131836 10.196 0.224249 10.5001 0.399785L17.5001 4.33979C17.8068 4.51683 18.061 4.77214 18.2366 5.0796C18.4123 5.38707 18.5033 5.73567 18.5001 6.08979V6.22978C18.4975 8.91655 17.7814 11.5544 16.425 13.8737C15.0686 16.1929 13.1205 18.1103 10.7801 19.4298L10.4801 19.5998C10.1802 19.7657 9.84277 19.8518 9.50008 19.8498ZM9.50008 2.14979L2.50008 6.08979V6.22978C2.50176 8.56088 3.12308 10.8496 4.30038 12.8616C5.47769 14.8736 7.16866 16.5364 9.20008 17.6798L9.50008 17.8498L9.80008 17.6798C11.8315 16.5364 13.5225 14.8736 14.6998 12.8616C15.8771 10.8496 16.4984 8.56088 16.5001 6.22978V6.08979L9.50008 2.14979Z" fill="#141517"/>
</svg>
