<svg id="Слой_1" data-name="Слой 1" xmlns="http://www.w3.org/2000/svg" viewBox="0 0 20.03 18.01"><defs><style>.cls-1{fill:#636364;}</style></defs><path class="cls-1" d="M4.71,3.29a1,1,0,0,0-.33-.22,1.07,1.07,0,0,0-.76,0,1,1,0,0,0-.33.22,1,1,0,0,0,0,1.42l5.63,5.63a3.47,3.47,0,0,0-.38,2.17,3.51,3.51,0,0,0,3,3,3.47,3.47,0,0,0,2.17-.38l5.63,5.63a1,1,0,0,0,.33.22.94.94,0,0,0,.76,0,1,1,0,0,0,.55-.55.94.94,0,0,0,0-.76,1,1,0,0,0-.22-.33ZM12,13.5A1.5,1.5,0,0,1,10.5,12v-.07l1.56,1.56Z" transform="translate(-2 -3)"/><path class="cls-1" d="M12.22,17c-4.3.1-7.12-3.59-8-5A13.93,13.93,0,0,1,6.46,9.28L5,7.87A15.74,15.74,0,0,0,2.13,11.5,1,1,0,0,0,2,12a1,1,0,0,0,.13.5c.63,1.09,4,6.5,9.89,6.5h.25a9.41,9.41,0,0,0,3.23-.67l-1.58-1.58A7.59,7.59,0,0,1,12.22,17Z" transform="translate(-2 -3)"/><path class="cls-1" d="M21.87,11.5C21.23,10.39,17.7,4.82,11.73,5a9.41,9.41,0,0,0-3.23.67l1.58,1.58A7.59,7.59,0,0,1,11.78,7c4.29-.11,7.11,3.59,8,5a13.55,13.55,0,0,1-2.29,2.72L19,16.13a16,16,0,0,0,2.91-3.63A1,1,0,0,0,22,12,1,1,0,0,0,21.87,11.5Z" transform="translate(-2 -3)"/></svg>