<svg width="33" height="31" viewBox="0 0 33 31" fill="none" xmlns="http://www.w3.org/2000/svg">
<path d="M17.6529 14.3454C17.3491 14.0476 16.9407 13.8809 16.5154 13.8809C16.09 13.8809 15.6816 14.0476 15.3779 14.3454L10.5029 19.0579C10.3304 19.2002 10.1892 19.3765 10.088 19.5758C9.98688 19.7752 9.92792 19.9933 9.91488 20.2164C9.90183 20.4396 9.93498 20.6631 10.0122 20.8728C10.0895 21.0826 10.2092 21.2742 10.3639 21.4356C10.5186 21.597 10.7049 21.7248 10.9112 21.8109C11.1175 21.897 11.3393 21.9396 11.5629 21.9361C11.7864 21.9325 12.0068 21.8829 12.2102 21.7903C12.4137 21.6977 12.5959 21.5641 12.7454 21.3979L14.8741 19.3341V28.4991C14.8741 28.9301 15.0453 29.3434 15.3501 29.6482C15.6548 29.9529 16.0681 30.1241 16.4991 30.1241C16.9301 30.1241 17.3434 29.9529 17.6482 29.6482C17.9529 29.3434 18.1241 28.9301 18.1241 28.4991V19.4154L20.2204 21.5279C20.3714 21.6802 20.5512 21.8011 20.7492 21.8836C20.9472 21.9661 21.1596 22.0085 21.3741 22.0085C21.5886 22.0085 21.801 21.9661 21.9991 21.8836C22.1971 21.8011 22.3768 21.6802 22.5279 21.5279C22.6802 21.3768 22.8011 21.1971 22.8836 20.9991C22.9661 20.801 23.0085 20.5886 23.0085 20.3741C23.0085 20.1596 22.9661 19.9472 22.8836 19.7492C22.8011 19.5512 22.6802 19.3714 22.5279 19.2204L17.6529 14.3454Z" fill="black" fill-opacity="0.2"/>
<path d="M25.7141 7.37552C25.0511 5.45973 23.8073 3.79827 22.1559 2.62233C20.5045 1.44639 18.5277 0.814453 16.5004 0.814453C14.4731 0.814453 12.4962 1.44639 10.8448 2.62233C9.19345 3.79827 7.9497 5.45973 7.28663 7.37552C5.82665 7.57106 4.44729 8.15983 3.29612 9.07883C2.14494 9.99783 1.26525 11.2125 0.751149 12.5929C0.237049 13.9733 0.107883 15.4675 0.377466 16.9156C0.647049 18.3637 1.30524 19.7113 2.28163 20.8143C2.39957 21.022 2.56186 21.2012 2.75695 21.3391C2.95205 21.4769 3.17513 21.5701 3.41034 21.6119C3.64554 21.6537 3.88706 21.6432 4.11772 21.581C4.34837 21.5188 4.56248 21.4065 4.7448 21.2522C4.92712 21.0978 5.07316 20.9052 5.17253 20.6879C5.2719 20.4707 5.32214 20.2342 5.31969 19.9953C5.31724 19.7564 5.26215 19.521 5.15835 19.3059C5.05454 19.0907 4.90458 18.9011 4.71913 18.7505C4.09044 18.0476 3.6791 17.1775 3.53497 16.2456C3.39084 15.3136 3.52009 14.3599 3.90707 13.4999C4.29406 12.64 4.92215 11.9107 5.71524 11.4005C6.50833 10.8903 7.43237 10.6211 8.37538 10.6255H8.53788C8.91804 10.6332 9.28886 10.5073 9.58577 10.2698C9.88269 10.0322 10.0869 9.69809 10.1629 9.32552C10.4612 7.85614 11.2584 6.5351 12.4193 5.58623C13.5803 4.63735 15.0335 4.119 16.5329 4.119C18.0322 4.119 19.4855 4.63735 20.6464 5.58623C21.8073 6.5351 22.6045 7.85614 22.9029 9.32552C22.9788 9.69809 23.1831 10.0322 23.48 10.2698C23.7769 10.5073 24.1477 10.6332 24.5279 10.6255H24.6254C25.5684 10.6211 26.4924 10.8903 27.2855 11.4005C28.0786 11.9107 28.7067 12.64 29.0937 13.4999C29.4807 14.3599 29.6099 15.3136 29.4658 16.2456C29.3216 17.1775 28.9103 18.0476 28.2816 18.7505C28.1385 18.911 28.0286 19.0984 27.9584 19.3017C27.8882 19.505 27.8591 19.7202 27.8727 19.9348C27.8863 20.1495 27.9424 20.3593 28.0377 20.5521C28.133 20.7449 28.2656 20.9169 28.4279 21.058C28.7241 21.3193 29.1054 21.4637 29.5004 21.4643C29.7311 21.464 29.9591 21.4146 30.1693 21.3193C30.3794 21.224 30.5668 21.0851 30.7191 20.9118C31.7226 19.8107 32.4041 18.455 32.689 16.9928C32.9739 15.5306 32.8514 14.0182 32.3348 12.621C31.8181 11.2237 30.9273 9.9954 29.7597 9.07029C28.592 8.14517 27.1925 7.55889 25.7141 7.37552Z" fill="black" fill-opacity="0.2"/>
</svg>
