<svg width="24" height="24" viewBox="0 0 24 24" fill="none" xmlns="http://www.w3.org/2000/svg">
<path d="M24 4H0V20.0002H24V4Z" fill="#F0F0F0"/>
<path d="M24 6H0V7.99983H24V6Z" fill="#CBCBCB"/>
<path d="M24 10H0V11.9998H24V10Z" fill="#CBCBCB"/>
<path d="M24 14H0V15.9998H24V14Z" fill="#CBCBCB"/>
<path d="M24 18H0V19.9998H24V18Z" fill="#CBCBCB"/>
<path d="M12 4H0V12.6155H12V4Z" fill="#A9A9A9"/>
<path d="M4.67972 7.5293L4.48645 8.12386H3.86133L4.36716 8.49113L4.17389 9.08564L4.67972 8.71838L5.18522 9.08564L4.992 8.49113L5.49783 8.12386H4.87266L4.67972 7.5293Z" fill="#F0F0F0"/>
<path d="M4.87266 10.2683L4.67972 9.67383L4.48645 10.2683H3.86133L4.36716 10.6357L4.17389 11.2302L4.67972 10.8629L5.18522 11.2302L4.992 10.6357L5.49783 10.2683H4.87266Z" fill="#F0F0F0"/>
<path d="M2.23012 10.2683L2.03714 9.67383L1.84388 10.2683H1.21875L1.72458 10.6357L1.53131 11.2302L2.03714 10.8629L2.54269 11.2302L2.34947 10.6357L2.8552 10.2683H2.23012Z" fill="#F0F0F0"/>
<path d="M2.03714 7.5293L1.84388 8.12386H1.21875L1.72458 8.49113L1.53131 9.08564L2.03714 8.71838L2.54269 9.08564L2.34947 8.49113L2.8552 8.12386H2.23012L2.03714 7.5293Z" fill="#F0F0F0"/>
<path d="M4.67972 5.38281L4.48645 5.97742H3.86133L4.36716 6.34473L4.17389 6.93924L4.67972 6.57193L5.18522 6.93924L4.992 6.34473L5.49783 5.97742H4.87266L4.67972 5.38281Z" fill="#F0F0F0"/>
<path d="M2.03714 5.38281L1.84388 5.97742H1.21875L1.72458 6.34473L1.53131 6.93924L2.03714 6.57193L2.54269 6.93924L2.34947 6.34473L2.8552 5.97742H2.23012L2.03714 5.38281Z" fill="#F0F0F0"/>
<path d="M7.3203 7.5293L7.12708 8.12386H6.50195L7.00773 8.49113L6.81456 9.08564L7.3203 8.71838L7.82589 9.08564L7.63262 8.49113L8.13845 8.12386H7.51333L7.3203 7.5293Z" fill="#F0F0F0"/>
<path d="M7.51333 10.2683L7.3203 9.67383L7.12708 10.2683H6.50195L7.00773 10.6357L6.81456 11.2302L7.3203 10.8629L7.82589 11.2302L7.63262 10.6357L8.13845 10.2683H7.51333Z" fill="#F0F0F0"/>
<path d="M10.1559 10.2683L9.96288 9.67383L9.76961 10.2683H9.14453L9.65027 10.6357L9.45705 11.2302L9.96288 10.8629L10.4684 11.2302L10.2752 10.6357L10.781 10.2683H10.1559Z" fill="#F0F0F0"/>
<path d="M9.96288 7.5293L9.76961 8.12386H9.14453L9.65027 8.49113L9.45705 9.08564L9.96288 8.71838L10.4684 9.08564L10.2752 8.49113L10.781 8.12386H10.1559L9.96288 7.5293Z" fill="#F0F0F0"/>
<path d="M7.3203 5.38281L7.12708 5.97742H6.50195L7.00773 6.34473L6.81456 6.93924L7.3203 6.57193L7.82589 6.93924L7.63262 6.34473L8.13845 5.97742H7.51333L7.3203 5.38281Z" fill="#F0F0F0"/>
<path d="M9.96288 5.38281L9.76961 5.97742H9.14453L9.65027 6.34473L9.45705 6.93924L9.96288 6.57193L10.4684 6.93924L10.2752 6.34473L10.781 5.97742H10.1559L9.96288 5.38281Z" fill="#F0F0F0"/>
</svg>
