<svg width="25" height="17" viewBox="0 0 25 17" fill="none" xmlns="http://www.w3.org/2000/svg">
<path d="M22.2369 16.9027H2.69318C1.46565 16.9027 0.46875 15.9058 0.46875 14.6782V2.22442C0.46875 0.996897 1.46565 0 2.69318 0H22.2443C23.4718 0 24.4688 0.996897 24.4688 2.22442V14.6708C24.4613 15.9058 23.4719 16.9027 22.2369 16.9027Z" fill="#0066B2"/>
<path d="M11.453 11.1022H10.2031L10.9843 6.30371H12.2341L11.453 11.1022Z" fill="white"/>
<path d="M9.15329 6.30371L7.96296 9.60688L7.82161 8.89268L7.39756 6.73521C7.39756 6.73521 7.34548 6.30371 6.80239 6.30371H4.83091L4.80859 6.38555C4.80859 6.38555 5.4112 6.51202 6.11795 6.93607L7.20413 11.1097H8.50605L10.4924 6.31115H9.15329V6.30371Z" fill="white"/>
<path d="M18.9789 11.1022H20.1246L19.1277 6.30371H18.1234C17.6621 6.30371 17.5431 6.66081 17.5431 6.66081L15.6758 11.1022H16.9777L17.2381 10.388H18.8302L18.9789 11.1022ZM17.6026 9.40601L18.2573 7.61308L18.6293 9.40601H17.6026Z" fill="white"/>
<path d="M15.7788 7.45725L15.9573 6.42315C15.9573 6.42315 15.4068 6.21484 14.8339 6.21484C14.2165 6.21484 12.7434 6.48267 12.7434 7.80691C12.7434 9.04931 14.4694 9.06419 14.4694 9.71144C14.4694 10.3661 12.922 10.2471 12.4086 9.8379L12.2227 10.9166C12.2227 10.9166 12.7806 11.1845 13.6362 11.1845C14.4917 11.1845 15.7788 10.7455 15.7788 9.54032C15.7788 8.29048 14.0379 8.17888 14.0379 7.6358C14.023 7.09271 15.2431 7.15966 15.7788 7.45725Z" fill="white"/>
<path d="M7.81771 8.8927L7.39365 6.73521C7.39365 6.73521 7.34157 6.30371 6.79849 6.30371H4.82701L4.80469 6.38555C4.80469 6.38555 5.74951 6.57898 6.65714 7.3155C7.535 8.01483 7.81771 8.8927 7.81771 8.8927Z" fill="#F9A533"/>
</svg>
