<svg width="21" height="20" viewBox="0 0 21 20" fill="none" xmlns="http://www.w3.org/2000/svg">
<path d="M10.4688 0C8.49094 0 6.55754 0.58649 4.91305 1.6853C3.26856 2.78412 1.98684 4.3459 1.22996 6.17317C0.473083 8.00043 0.275049 10.0111 0.660902 11.9509C1.04675 13.8907 1.99916 15.6725 3.39769 17.0711C4.79621 18.4696 6.57804 19.422 8.51785 19.8079C10.4577 20.1937 12.4683 19.9957 14.2956 19.2388C16.1229 18.4819 17.6846 17.2002 18.7834 15.5557C19.8823 13.9112 20.4688 11.9778 20.4688 10C20.4688 8.68678 20.2101 7.38642 19.7076 6.17317C19.205 4.95991 18.4684 3.85752 17.5398 2.92893C16.6112 2.00035 15.5088 1.26375 14.2956 0.761205C13.0823 0.258658 11.782 0 10.4688 0ZM10.4688 18C8.8865 18 7.33979 17.5308 6.02419 16.6518C4.7086 15.7727 3.68322 14.5233 3.07772 13.0615C2.47222 11.5997 2.31379 9.99113 2.62247 8.43928C2.93115 6.88743 3.69308 5.46197 4.8119 4.34315C5.93072 3.22433 7.35618 2.4624 8.90803 2.15372C10.4599 1.84504 12.0684 2.00346 13.5302 2.60896C14.992 3.21447 16.2415 4.23984 17.1205 5.55544C17.9996 6.87103 18.4688 8.41775 18.4688 10C18.4688 12.1217 17.6259 14.1566 16.1256 15.6569C14.6253 17.1571 12.5905 18 10.4688 18Z" fill="black"/>
<path d="M10.4688 15C11.021 15 11.4688 14.5523 11.4688 14C11.4688 13.4477 11.021 13 10.4688 13C9.91647 13 9.46875 13.4477 9.46875 14C9.46875 14.5523 9.91647 15 10.4688 15Z" fill="black"/>
<path d="M10.4688 5C10.2035 5 9.94918 5.10536 9.76164 5.29289C9.57411 5.48043 9.46875 5.73478 9.46875 6V11C9.46875 11.2652 9.57411 11.5196 9.76164 11.7071C9.94918 11.8946 10.2035 12 10.4688 12C10.734 12 10.9883 11.8946 11.1759 11.7071C11.3634 11.5196 11.4688 11.2652 11.4688 11V6C11.4688 5.73478 11.3634 5.48043 11.1759 5.29289C10.9883 5.10536 10.734 5 10.4688 5Z" fill="black"/>
</svg>
