<svg width="28" height="28" viewBox="0 0 28 28" fill="none" xmlns="http://www.w3.org/2000/svg">
<path d="M14.0013 0.666016C11.3642 0.666016 8.78636 1.448 6.59371 2.91309C4.40105 4.37817 2.69208 6.46055 1.68291 8.8969C0.673746 11.3333 0.409701 14.0141 0.924171 16.6006C1.43864 19.187 2.70852 21.5627 4.57322 23.4274C6.43792 25.2921 8.81369 26.562 11.4001 27.0765C13.9865 27.591 16.6674 27.3269 19.1038 26.3177C21.5401 25.3086 23.6225 23.5996 25.0876 21.407C26.5527 19.2143 27.3346 16.6364 27.3346 13.9993C27.3346 12.2484 26.9898 10.5146 26.3197 8.8969C25.6496 7.27923 24.6675 5.80937 23.4294 4.57126C22.1913 3.33314 20.7214 2.35102 19.1038 1.68096C17.4861 1.01089 15.7523 0.666016 14.0013 0.666016ZM14.0013 24.666C11.8916 24.666 9.82935 24.0404 8.07523 22.8684C6.3211 21.6963 4.95393 20.0304 4.14659 18.0813C3.33926 16.1322 3.12802 13.9875 3.5396 11.9184C3.95117 9.84926 4.96708 7.94864 6.45884 6.45688C7.9506 4.96512 9.85121 3.94922 11.9203 3.53764C13.9895 3.12606 16.1342 3.3373 18.0833 4.14463C20.0323 4.95197 21.6982 6.31914 22.8703 8.07327C24.0424 9.82739 24.668 11.8897 24.668 13.9993C24.668 16.8283 23.5442 19.5414 21.5438 21.5418C19.5434 23.5422 16.8303 24.666 14.0013 24.666Z" fill="#B9B9BA"/>
<path d="M14.0013 20.6667C14.7377 20.6667 15.3346 20.0697 15.3346 19.3333C15.3346 18.597 14.7377 18 14.0013 18C13.2649 18 12.668 18.597 12.668 19.3333C12.668 20.0697 13.2649 20.6667 14.0013 20.6667Z" fill="#B9B9BA"/>
<path d="M14.0013 7.33398C13.6477 7.33398 13.3085 7.47446 13.0585 7.72451C12.8084 7.97456 12.668 8.3137 12.668 8.66732V15.334C12.668 15.6876 12.8084 16.0267 13.0585 16.2768C13.3085 16.5268 13.6477 16.6673 14.0013 16.6673C14.3549 16.6673 14.6941 16.5268 14.9441 16.2768C15.1942 16.0267 15.3346 15.6876 15.3346 15.334V8.66732C15.3346 8.3137 15.1942 7.97456 14.9441 7.72451C14.6941 7.47446 14.3549 7.33398 14.0013 7.33398Z" fill="#B9B9BA"/>
</svg>
